<svg width="1512" height="63" viewBox="0 0 1512 63" fill="none" xmlns="http://www.w3.org/2000/svg">
<g clip-path="url(#clip0_559_829)">
<path d="M63 0H0V63H63V0Z" fill="#BC0000"/>
<path d="M63 0H31.5V63H63V0Z" fill="#FF0000"/>
<path d="M12.8027 18.4661H24.3327L18.6436 25.3205L12.8027 18.4661Z" fill="white"/>
<path d="M38.6675 18.4661H50.1974L44.5083 25.3205L38.6675 18.4661Z" fill="white"/>
<path d="M17.8262 30.9606H44.4312L31.3038 53.4459L17.8262 30.9606Z" fill="#FF4400"/>
</g>
<g clip-path="url(#clip1_559_829)">
<path d="M126 0H63V63H126V0Z" fill="#FF4500"/>
<mask id="mask0_559_829" style="mask-type:luminance" maskUnits="userSpaceOnUse" x="63" y="0" width="63" height="63">
<path d="M126 0H63V63H126V0Z" fill="white"/>
</mask>
<g mask="url(#mask0_559_829)">
<path opacity="0.42" d="M62.6941 64.6417L105.642 9.99316L148.59 64.3638L62.6941 64.6417Z" fill="#FFE700"/>
<path opacity="0.42" d="M83.3577 64.6417L126.306 9.99316L169.256 64.3638L83.3577 64.6417Z" fill="#FFE700"/>
<path opacity="0.42" d="M103.886 64.6417L146.836 9.99316L189.785 64.3638L103.886 64.6417Z" fill="#FFE700"/>
<path opacity="0.42" d="M40.4094 64.6417L83.3576 9.99316L126.306 64.3638L40.4094 64.6417Z" fill="#FFE700"/>
<path opacity="0.42" d="M20.0518 64.6417L62.9999 9.99316L105.948 64.3638L20.0518 64.6417Z" fill="#FFE700"/>
<path opacity="0.42" d="M0.0256348 64.6417L42.9738 9.99316L85.9243 64.3638L0.0256348 64.6417Z" fill="#FFE700"/>
</g>
</g>
<g clip-path="url(#clip2_559_829)">
<path d="M189 0H126V63H189V0Z" fill="#5EC900"/>
<path fill-rule="evenodd" clip-rule="evenodd" d="M143.172 7.79797C147.542 15.1475 138.597 15.4184 146.43 27.336C151.489 35.0335 155.251 31.3249 157.596 30.1268C161.143 28.3169 161.038 26.215 159.167 21.0724C154.293 7.67186 147.479 14.7411 143.172 7.79797Z" fill="#00BA0E"/>
<path fill-rule="evenodd" clip-rule="evenodd" d="M172.519 7.85402C167.916 15.0611 163.656 7.1931 156.531 19.5451C151.928 27.5252 156.932 29.2183 159.058 30.7737C162.269 33.1302 164.1 32.0909 167.853 28.1067C177.631 17.7281 168.255 14.8205 172.521 7.85168L172.519 7.85402Z" fill="#00BA0E"/>
<path fill-rule="evenodd" clip-rule="evenodd" d="M185.144 38.0976C176.856 35.998 182.982 29.4752 169.016 26.6003C159.994 24.7437 159.961 30.0264 159.151 32.5323C157.927 36.3226 159.487 37.7309 164.45 40.0406C177.379 46.0566 177.187 36.2386 185.144 38.0976Z" fill="#00BA0E"/>
<path fill-rule="evenodd" clip-rule="evenodd" d="M158.703 55.842C158.787 47.292 166.571 51.706 166.068 37.4553C165.744 28.2491 160.604 29.4659 157.976 29.2697C154.004 28.9731 153.002 30.8227 151.93 36.1895C149.134 50.1716 158.63 47.6704 158.703 55.8396V55.842Z" fill="#00BA0E"/>
<path fill-rule="evenodd" clip-rule="evenodd" d="M132.583 38.2354C140.832 35.9794 138.712 44.6718 152.283 40.2929C161.05 37.4647 158.474 32.85 157.944 30.2717C157.143 26.3692 155.09 25.9138 149.634 26.3482C135.421 27.4832 140.421 35.9304 132.583 38.2354Z" fill="#00BA0E"/>
<path fill-rule="evenodd" clip-rule="evenodd" d="M143.172 7.79797C147.542 15.1475 138.597 15.4184 146.43 27.336C151.489 35.0335 155.251 31.3249 157.596 30.1268C161.143 28.3169 161.038 26.215 159.167 21.0724C154.293 7.67186 147.479 14.7411 143.172 7.79797Z" fill="#00BA0E"/>
<path opacity="0.9" fill-rule="evenodd" clip-rule="evenodd" d="M158.011 30.5495L157.855 8.22534C157.855 8.22534 162.652 12.4151 162.708 18.9449C162.764 25.4747 158.009 30.5495 158.009 30.5495" fill="#E7E9E7"/>
<path fill-rule="evenodd" clip-rule="evenodd" d="M158.14 30.3861C158.14 30.3861 153.049 26.0188 153.42 18.8001C153.791 11.5813 157.965 8.22302 157.965 8.22302L158.14 30.3861Z" fill="#E7E9E7"/>
<path opacity="0.9" fill-rule="evenodd" clip-rule="evenodd" d="M158.444 30.6733L136.904 24.8044C136.904 24.8044 142.231 21.313 148.537 23.0202C154.84 24.7274 158.446 30.6733 158.446 30.6733" fill="#E7E9E7"/>
<path fill-rule="evenodd" clip-rule="evenodd" d="M158.32 30.5052C158.32 30.5052 152.743 34.2301 145.891 31.9274C139.039 29.6224 136.93 24.6993 136.93 24.6993L158.32 30.5052Z" fill="#E7E9E7"/>
<path opacity="0.9" fill-rule="evenodd" clip-rule="evenodd" d="M158.444 30.2833L142.841 46.2505C142.841 46.2505 142.383 39.8982 146.939 35.2204C151.496 30.5426 158.444 30.2857 158.444 30.2857" fill="#E7E9E7"/>
<path fill-rule="evenodd" clip-rule="evenodd" d="M158.238 30.309C158.238 30.309 158.78 36.9929 153.434 41.8599C148.088 46.7269 142.761 46.1734 142.761 46.1734L158.238 30.309Z" fill="#E7E9E7"/>
<path opacity="0.9" fill-rule="evenodd" clip-rule="evenodd" d="M157.857 30.1501L173.731 45.8488C173.731 45.8488 167.377 46.2691 162.724 41.6847C158.075 37.1003 157.857 30.1501 157.857 30.1501Z" fill="#E7E9E7"/>
<path fill-rule="evenodd" clip-rule="evenodd" d="M157.881 30.3557C157.881 30.3557 164.569 29.8536 169.404 35.2274C174.238 40.6011 173.654 45.9259 173.654 45.9259L157.881 30.3557Z" fill="#E7E9E7"/>
<path opacity="0.9" fill-rule="evenodd" clip-rule="evenodd" d="M157.881 30.1829L179.376 24.1528C179.376 24.1528 176.597 29.8839 170.312 31.6588C164.027 33.4337 157.881 30.1829 157.881 30.1829Z" fill="#E7E9E7"/>
<path fill-rule="evenodd" clip-rule="evenodd" d="M158.072 30.2623C158.072 30.2623 160.942 24.2019 168.005 22.6582C175.067 21.1145 179.406 24.2556 179.406 24.2556L158.072 30.2623Z" fill="#E7E9E7"/>
<path d="M154.646 28.4033C155.837 28.4033 156.802 27.4382 156.802 26.2477C156.802 25.0572 155.837 24.0922 154.646 24.0922C153.456 24.0922 152.49 25.0572 152.49 26.2477C152.49 27.4382 153.456 28.4033 154.646 28.4033Z" fill="#FFA528"/>
<path d="M161.428 28.3683C162.619 28.3683 163.584 27.4032 163.584 26.2127C163.584 25.0222 162.619 24.0571 161.428 24.0571C160.238 24.0571 159.273 25.0222 159.273 26.2127C159.273 27.4032 160.238 28.3683 161.428 28.3683Z" fill="#FFA528"/>
<path d="M158.072 36.9906C159.263 36.9906 160.228 36.0255 160.228 34.835C160.228 33.6445 159.263 32.6794 158.072 32.6794C156.882 32.6794 155.917 33.6445 155.917 34.835C155.917 36.0255 156.882 36.9906 158.072 36.9906Z" fill="#FFA528"/>
<path d="M152.491 34.1741C153.681 34.1741 154.646 33.209 154.646 32.0185C154.646 30.828 153.681 29.8629 152.491 29.8629C151.3 29.8629 150.335 30.828 150.335 32.0185C150.335 33.209 151.3 34.1741 152.491 34.1741Z" fill="#FFA528"/>
<path d="M163.584 33.5505C164.774 33.5505 165.739 32.5855 165.739 31.395C165.739 30.2045 164.774 29.2394 163.584 29.2394C162.393 29.2394 161.428 30.2045 161.428 31.395C161.428 32.5855 162.393 33.5505 163.584 33.5505Z" fill="#FFA528"/>
</g>
<g clip-path="url(#clip3_559_829)">
<mask id="mask1_559_829" style="mask-type:luminance" maskUnits="userSpaceOnUse" x="189" y="0" width="63" height="63">
<path d="M252 0H189V63H252V0Z" fill="white"/>
</mask>
<g mask="url(#mask1_559_829)">
<path d="M252 0H189V63H252V0Z" fill="#007F08"/>
<path d="M255.566 8.00354C254.352 8.70183 253.158 9.56126 252 10.5305C246.203 15.3718 241.287 22.8871 238.952 25.8974C236.15 29.5103 243.207 28.2959 244.592 28.2609C245.977 28.2282 248.812 27.2473 247.598 31.6052C244.102 43.7633 231.36 59.4643 228.312 63.1052C227.889 63.6096 227.653 63.8829 227.653 63.8829H204.152L205.166 63.1052L206.763 61.8791C222.791 48.259 229.993 37.9528 234.405 32.2801C238.819 26.6074 221.261 26.5163 224.052 21.3854C226.731 16.4554 250.141 4.22485 252 3.25799C252.077 3.21828 252.117 3.19727 252.117 3.19727L255.566 8.00354Z" fill="#00BA0E"/>
<path d="M234.744 22.5787C234.744 22.5787 235.12 30.0474 235.115 30.4024C235.11 30.7573 235.143 31.0282 234.699 31.862C234.256 32.6957 232.836 34.3282 232.836 34.3282L229.454 29.1482L234.746 22.5787H234.744Z" fill="#007F08"/>
<path d="M222.838 -0.399312C222.838 -0.399312 200.686 9.58923 191.772 22.1958C187.856 27.5532 206.854 27.0137 208.97 27.4177C211.086 27.8218 213.968 28.2281 209.645 31.3786C205.322 34.5291 188.339 40.7529 188.339 40.7529V60.0995C188.339 60.0995 229.905 29.2417 231.864 27.1468C233.824 25.052 238.819 19.9888 228.083 20.3928C217.347 20.7969 209.715 21.4741 213.228 17.219C216.74 12.9639 226.483 5.02117 245.797 -0.999512H224.998C224.998 -0.999512 223.725 -0.812679 222.838 -0.396976V-0.399312Z" fill="#00AB34"/>
<path d="M252 10.5304V63.1051H228.312C231.36 59.4642 244.102 43.7633 247.598 31.6051C248.812 27.2473 245.977 28.2281 244.592 28.2608C243.207 28.2959 236.15 29.5103 238.952 25.8974C241.288 22.887 246.204 15.3717 252 10.5304Z" fill="#007622"/>
</g>
</g>
<g clip-path="url(#clip4_559_829)">
<path d="M315 0H252V62.9977H315V0Z" fill="#00AB34"/>
<path d="M269.261 9.49536C269.261 9.49536 267.54 11.9498 267.561 15.1235C267.582 18.2972 268.978 18.6358 269.261 18.6358C269.544 18.6358 271.213 18.5447 271.309 14.6074C271.388 11.366 269.261 9.4977 269.261 9.4977V9.49536Z" fill="#FFBF00"/>
<path d="M279.053 24.0234C279.053 24.0234 277.759 21.263 274.959 19.7707C272.159 18.2785 271.162 19.4064 271.022 19.6657C270.882 19.9249 270.123 21.5129 273.537 23.4792C276.347 25.0976 279.056 24.0257 279.056 24.0257L279.053 24.0234Z" fill="#FFBF00"/>
<path d="M259.707 24.6632C259.707 24.6632 260.823 21.7768 263.556 20.0697C266.288 18.3625 267.376 19.4368 267.537 19.6913C267.699 19.9459 268.577 21.4989 265.258 23.7291C262.526 25.5623 259.709 24.6632 259.709 24.6632H259.707Z" fill="#FFBF00"/>
<path d="M269.478 20.1561L266.02 63H274.158L269.478 20.1561Z" fill="#5EC900"/>
<path d="M283.869 18.9441C283.869 18.9441 281.957 21.6694 281.982 25.1934C282.008 28.7174 283.556 29.0934 283.869 29.0934C284.182 29.0934 286.036 28.993 286.144 24.6189C286.23 21.0202 283.869 18.9464 283.869 18.9464V18.9441Z" fill="#FFBF00"/>
<path d="M294.74 35.0742C294.74 35.0742 293.304 32.0102 290.193 30.3522C287.082 28.6941 285.978 29.9458 285.821 30.2354C285.665 30.525 284.824 32.2858 288.614 34.4693C291.735 36.2675 294.74 35.0742 294.74 35.0742Z" fill="#FFBF00"/>
<path d="M273.259 35.7841C273.259 35.7841 274.499 32.58 277.533 30.6837C280.567 28.7875 281.774 29.9808 281.954 30.2634C282.134 30.546 283.108 32.2718 279.422 34.7472C276.389 36.7836 273.262 35.7841 273.262 35.7841H273.259Z" fill="#FFBF00"/>
<path d="M283.85 30.9009L280.001 62.9999H289.061L283.85 30.9009Z" fill="#5EC900"/>
<path d="M299.904 31.4988C299.904 31.4988 298.435 33.5936 298.453 36.3025C298.472 39.0115 299.663 39.2988 299.904 39.2988C300.144 39.2988 301.571 39.2217 301.653 35.8588C301.721 33.0915 299.904 31.4988 299.904 31.4988Z" fill="#FFBF00"/>
<path d="M308.26 43.897C308.26 43.897 307.155 41.5407 304.764 40.2679C302.372 38.9928 301.522 39.9573 301.403 40.1768C301.284 40.3964 300.637 41.7532 303.549 43.4323C305.948 44.8148 308.258 43.897 308.258 43.897H308.26Z" fill="#FFBF00"/>
<path d="M291.749 44.4435C291.749 44.4435 292.701 41.9797 295.034 40.5225C297.365 39.0652 298.295 39.983 298.432 40.2002C298.57 40.4174 299.32 41.7438 296.487 43.6471C294.156 45.2118 291.751 44.4435 291.751 44.4435H291.749Z" fill="#FFBF00"/>
<path d="M299.897 39.6794L297.099 63H303.683L299.897 39.6794Z" fill="#5EC900"/>
</g>
<g clip-path="url(#clip5_559_829)">
<path d="M378 0H315V63H378V0Z" fill="#FF5800"/>
<path d="M378 39.2932H315V63H378V39.2932Z" fill="#FFAA4A"/>
<path d="M352.422 10.6565V14.8929L348.233 10.5374H348.957L346.584 4.89734L344.211 10.5374H344.937L340.745 14.8929V10.6565L337.889 17.7631H346.584H355.279L352.422 10.6565Z" fill="#FFAA4A"/>
<path d="M355.041 17.7631H338.193V27.1748H355.041V17.7631Z" fill="#FF0006"/>
<path d="M361.853 27.1748H331.149V63H361.853V27.1748Z" fill="#FFAA4A"/>
<path d="M334.323 20.2269L331.441 27.1748H334.323V20.2269Z" fill="#FF8D00"/>
<path d="M358.859 20.2269L361.738 27.1748H358.859V20.2269Z" fill="#FF8D00"/>
<path d="M319.668 63L331.149 31.8619V63H319.668Z" fill="#FF0006"/>
<path d="M373.331 63L361.851 31.8619V63H373.331Z" fill="#FF0006"/>
<path d="M346.619 43.4503C349.837 43.4503 352.448 46.0636 352.448 49.2795V63H340.788V49.2795C340.788 46.0613 343.401 43.4503 346.617 43.4503H346.619Z" fill="#FF5800"/>
</g>
<g clip-path="url(#clip6_559_829)">
<path d="M441 0H378V63H441V0Z" fill="#FF0006"/>
<mask id="mask2_559_829" style="mask-type:luminance" maskUnits="userSpaceOnUse" x="378" y="0" width="63" height="63">
<path d="M441 0H378V63H441V0Z" fill="white"/>
</mask>
<g mask="url(#mask2_559_829)">
<path d="M434.134 101.646C459.887 101.646 480.765 80.7689 480.765 55.0153C480.765 29.2616 459.887 8.38416 434.134 8.38416C408.38 8.38416 387.502 29.2616 387.502 55.0153C387.502 80.7689 408.38 101.646 434.134 101.646Z" fill="white"/>
<path d="M434.134 97.3866C457.535 97.3866 476.505 78.4163 476.505 55.0153C476.505 31.6142 457.535 12.6439 434.134 12.6439C410.732 12.6439 391.762 31.6142 391.762 55.0153C391.762 78.4163 410.732 97.3866 434.134 97.3866Z" fill="#FFC27F"/>
<path d="M410.917 22.1584V39.6016C410.917 39.6016 419.673 39.4989 419.673 30.8812C419.673 22.2635 410.917 22.1608 410.917 22.1608V22.1584Z" fill="#FF6143"/>
<path d="M434.105 28.6774C437.409 25.9194 438.637 21.9449 436.847 19.8001C435.057 17.6552 430.927 18.1523 427.622 20.9103C424.318 23.6683 423.09 27.6428 424.881 29.7876C426.671 31.9324 430.801 31.4353 434.105 28.6774Z" fill="#B260AB"/>
<path d="M413.454 52.1287L420.717 55.4239C421.875 55.9494 423.314 54.9265 423.526 53.4295L425.526 39.368C425.815 37.3245 423.713 36.3717 422.368 37.9341L413.104 48.7003C412.116 49.847 412.295 51.6032 413.452 52.1287H413.454Z" fill="#62C66C"/>
<path d="M444.104 38.2175L438.77 33.4163C437.565 32.3317 435.709 32.4293 434.624 33.6343L429.823 38.9685C428.738 40.1735 428.836 42.0297 430.041 43.1143L435.375 47.9156C436.58 49.0002 438.436 48.9026 439.521 47.6976L444.322 42.3634C445.407 41.1584 445.309 39.3022 444.104 38.2175Z" fill="#FF8647"/>
<path d="M405.625 47.0422H406.2C408.021 47.0422 409.5 48.5206 409.5 50.3422V56.1083C409.5 57.9299 408.021 59.4082 406.2 59.4082H399.859C398.037 59.4082 396.559 57.9299 396.559 56.1083C396.559 51.1059 400.62 47.0422 405.625 47.0422Z" fill="#FF627A"/>
<path d="M435.135 64.6086C437.783 62.5458 438.142 58.576 435.934 55.7419C433.727 52.9078 429.791 52.2826 427.142 54.3454C424.493 56.4083 424.135 60.3781 426.342 63.2122C428.549 66.0463 432.486 66.6715 435.135 64.6086Z" fill="white"/>
<path d="M405.901 40.0874C406.025 39.8025 408.61 33.651 402.956 29.1366C397.167 24.5125 385.688 26.1987 385.688 26.1987C385.688 26.1987 388.224 37.5208 394.614 41.2691C400.854 44.931 405.672 40.3139 405.894 40.0967C405.894 40.0967 405.894 40.0967 405.896 40.092C405.899 40.0897 405.901 40.0874 405.901 40.0874Z" fill="#00A846"/>
</g>
</g>
<g clip-path="url(#clip7_559_829)">
<mask id="mask3_559_829" style="mask-type:luminance" maskUnits="userSpaceOnUse" x="441" y="0" width="63" height="63">
<path d="M504 0H441V63H504V0Z" fill="white"/>
</mask>
<g mask="url(#mask3_559_829)">
<path d="M504 0H441V63H504V0Z" fill="#0056AB"/>
<path d="M441 0V63H504L441 0Z" fill="#0074C1"/>
<path d="M441 27.1047V63H476.895L441 27.1047Z" fill="#0056AB"/>
<path d="M504 63V0H441L504 63Z" fill="#00AB9C"/>
<path d="M504 35.8952V0H468.105L504 35.8952Z" fill="#00CDBD"/>
<path d="M460.323 13.9518H455.832C456.068 12.7981 456.253 9.77838 452.953 6.47845C449.44 2.96599 444.917 3.93519 444.917 3.93519C444.917 3.93519 443.455 7.69753 447.663 11.9059C450.508 14.7505 454.015 14.6547 455.246 14.5169V19.0289L460.321 13.9541L460.323 13.9518Z" fill="#FF8D00"/>
<path d="M482.743 24.7134H478.252C478.488 23.5597 478.673 20.54 475.373 17.24C471.86 13.7276 467.337 14.6968 467.337 14.6968C467.337 14.6968 465.875 18.4591 470.083 22.6675C472.927 25.5121 476.435 25.4163 477.666 25.2785V29.7905L482.741 24.7157L482.743 24.7134Z" fill="#FF8D00"/>
<path d="M501.739 34.842H497.248C497.484 33.6883 497.669 30.6686 494.369 27.3687C490.856 23.8563 486.333 24.8254 486.333 24.8254C486.333 24.8254 484.871 28.5878 489.079 32.7962C491.924 35.6407 495.431 35.545 496.662 35.4072V39.9192L501.737 34.8443L501.739 34.842Z" fill="#FF8D00"/>
<path d="M490.936 44.3868H486.445C486.68 43.2331 486.865 40.2134 483.565 36.9135C480.053 33.4011 475.529 34.3702 475.529 34.3702C475.529 34.3702 474.067 38.1326 478.275 42.341C481.12 45.1855 484.628 45.0898 485.858 44.952V49.464L490.933 44.3892L490.936 44.3868Z" fill="#FF8D00"/>
<path d="M480.616 52.7265H476.125C476.361 51.5728 476.545 48.5532 473.245 45.2532C469.733 41.7408 465.209 42.71 465.209 42.71C465.209 42.71 463.747 46.4723 467.956 50.6807C470.8 53.5252 474.308 53.4295 475.539 53.2917V57.8037L480.613 52.7289L480.616 52.7265Z" fill="#FF8D00"/>
<path d="M471.846 34.3469H467.355C467.591 33.1932 467.776 30.1735 464.476 26.8736C460.963 23.3611 456.44 24.3303 456.44 24.3303C456.44 24.3303 454.978 28.0927 459.186 32.3011C462.031 35.1456 465.538 35.0499 466.769 34.9121V39.4241L471.844 34.3492L471.846 34.3469Z" fill="#FF8D00"/>
</g>
</g>
<g clip-path="url(#clip8_559_829)">
<path d="M566.984 0H504V63H566.984V0Z" fill="#00B737"/>
<path d="M504 63L535.499 31.493L567 63H535.499H504Z" fill="#7BC70F"/>
<path d="M567 0L535.499 31.507L504 0H535.499H567Z" fill="#7BC70F"/>
</g>
<g clip-path="url(#clip9_559_829)">
<path d="M630 0H567V63H630V0Z" fill="#00AB9C"/>
<mask id="mask4_559_829" style="mask-type:luminance" maskUnits="userSpaceOnUse" x="567" y="0" width="63" height="63">
<path d="M630 0H567V63H630V0Z" fill="white"/>
</mask>
<g mask="url(#mask4_559_829)">
<path d="M598.5 109.783C618.99 109.783 635.601 93.1725 635.601 72.6826C635.601 52.1926 618.99 35.5823 598.5 35.5823C578.01 35.5823 561.4 52.1926 561.4 72.6826C561.4 93.1725 578.01 109.783 598.5 109.783Z" fill="#00BDB4"/>
</g>
<path d="M583.455 40.447L588.453 38.7352C588.453 38.7352 589.354 22.8871 578.864 16.9458C578.864 16.9458 584.807 22.3943 583.455 40.447Z" fill="#FFAA4A"/>
<path d="M578.969 16.8057L575.744 28.3543C575.744 28.3543 572.164 22.2425 576.622 18.2583L568.588 23.0692C568.588 23.0692 569.669 16.7379 575.914 16.5021L567 14.2414C567 14.2414 572.217 10.3086 576.86 14.9163L571.087 7.70691C571.087 7.70691 577.857 7.94279 578.717 14.0896C578.717 14.0896 579.172 7.77464 586.449 7.77464L581.022 14.1737C581.022 14.1737 584.98 10.3926 590.366 13.9214L582.313 15.9976C582.313 15.9976 587.902 15.0681 590.163 21.3504L578.969 16.808V16.8057Z" fill="#62C66C"/>
<path d="M599.829 63H593.359C593.359 63 592.449 43.2051 606.312 35.3511C606.312 35.3511 598.717 43.8683 599.829 63Z" fill="#FFAA4A"/>
<path d="M606.169 35.1642L610.431 50.4284C610.431 50.4284 615.163 42.3503 609.271 37.0839L619.892 43.4432C619.892 43.4432 618.463 35.0755 610.207 34.7625L621.989 31.7732C621.989 31.7732 615.095 26.5746 608.958 32.6653L616.59 23.1368C616.59 23.1368 607.641 23.4498 606.503 31.5723C606.503 31.5723 605.901 23.2256 596.284 23.2256L603.458 31.6821C603.458 31.6821 598.224 26.6843 591.106 31.3481L601.751 34.0922C601.751 34.0922 594.364 32.8638 591.375 41.1662L606.169 35.1642Z" fill="#62C66C"/>
</g>
<g clip-path="url(#clip10_559_829)">
<path d="M693 0H630V63H693V0Z" fill="#0056AB"/>
<path d="M641.882 12.8494V25.9043L654.961 12.8494H641.882Z" fill="#0074C1"/>
<path d="M654.96 12.8494V25.9043L668.039 12.8494H654.96Z" fill="#0074C1"/>
<path d="M668.039 12.8494V25.9043L681.117 12.8494H668.039Z" fill="#0074C1"/>
<path d="M654.96 25.9043V38.9616L668.039 25.9043H654.96Z" fill="#0074C1"/>
<path d="M668.039 25.9043V38.9616L681.117 25.9043H668.039Z" fill="#0074C1"/>
<path d="M654.96 38.9615V52.0165L668.039 38.9615H654.96Z" fill="#0074C1"/>
<path d="M668.039 38.9615V52.0165L681.117 38.9615H668.039Z" fill="#0074C1"/>
<path d="M641.882 25.9043V38.9616L654.961 25.9043H641.882Z" fill="#0074C1"/>
<path d="M641.882 38.9615V52.0165L654.961 38.9615H641.882Z" fill="#0074C1"/>
</g>
<g clip-path="url(#clip11_559_829)">
<path d="M756 0H693V63H756V0Z" fill="#FF5800"/>
<path d="M756 31.5H693V63H756V31.5Z" fill="#FF8D00"/>
<path d="M716.548 17.9313H732.452L724.5 31.5L716.548 17.9313Z" fill="#FFBC00"/>
<path d="M741.647 63H707.354L724.5 31.5L741.647 63Z" fill="#FFBC00"/>
<path d="M725.383 10.2711H723.292V17.9313H725.383V10.2711Z" fill="#FFBC00"/>
<path d="M728.169 14.5846V12.4944H720.509V14.5846H728.169Z" fill="#FFBC00"/>
<path opacity="0.64" d="M724.339 40.7973C729.498 40.7973 733.68 36.6149 733.68 31.4557C733.68 26.2964 729.498 22.114 724.339 22.114C719.179 22.114 714.997 26.2964 714.997 31.4557C714.997 36.6149 719.179 40.7973 724.339 40.7973Z" fill="#FFD600"/>
</g>
<g clip-path="url(#clip12_559_829)">
<path d="M819 0H756V63H819V0Z" fill="#FFA879"/>
<path d="M766.472 21.1315L763.366 24.2378L772.322 33.1932L775.428 30.087L766.472 21.1315Z" fill="#9E1893"/>
<path d="M769.562 18.0418L766.456 21.1481L775.411 30.1035L778.517 26.9973L769.562 18.0418Z" fill="#FFF000"/>
<path d="M772.657 14.9428L769.551 18.0491L778.506 27.0045L781.612 23.8983L772.657 14.9428Z" fill="#00B737"/>
<path d="M775.758 11.8438L772.652 14.9501L781.607 23.9055L784.714 20.7993L775.758 11.8438Z" fill="#FF0006"/>
<path d="M763.366 18.0582L760.276 21.1479L763.366 24.2377L766.456 21.148L763.366 18.0582Z" fill="white"/>
<path d="M763.366 18.0574L760.276 21.1471L763.366 24.2369V18.0574Z" fill="#FF0006"/>
<path d="M766.463 14.9599L763.373 18.0497L766.463 21.1394L769.553 18.0497L766.463 14.9599Z" fill="white"/>
<path d="M766.463 14.9607L763.373 18.0504L766.463 21.1402V14.9607Z" fill="#00A846"/>
<path d="M769.562 11.8627L766.472 14.9524L769.562 18.0421L772.652 14.9524L769.562 11.8627Z" fill="white"/>
<path d="M769.562 11.8616L766.472 14.9513L769.562 18.0411V11.8616Z" fill="#9E1893"/>
<path d="M772.659 8.76195L769.569 11.8517L772.659 14.9414L775.748 11.8517L772.659 8.76195Z" fill="white"/>
<path d="M772.659 8.76489L769.569 11.8546L772.659 14.9444V8.76489Z" fill="#FFCE00"/>
<path d="M761.024 33.1138H784.098L780.788 35.8369H764.401L761.024 33.1138Z" fill="#FF6143"/>
<path d="M796.312 39.5296L793.206 42.6359L802.162 51.5913L805.268 48.4851L796.312 39.5296Z" fill="#9E1893"/>
<path d="M799.4 36.4415L796.294 39.5477L805.249 48.5032L808.356 45.3969L799.4 36.4415Z" fill="#FFF000"/>
<path d="M802.497 33.3409L799.391 36.4471L808.346 45.4026L811.452 42.2963L802.497 33.3409Z" fill="#00B737"/>
<path d="M805.596 30.2435L802.49 33.3497L811.445 42.3052L814.551 39.1989L805.596 30.2435Z" fill="#FF0006"/>
<path d="M793.204 36.4546L790.115 39.5443L793.204 42.634L796.294 39.5443L793.204 36.4546Z" fill="white"/>
<path d="M793.203 36.4557L790.116 39.5454L793.203 42.6352V36.4557Z" fill="#FF0006"/>
<path d="M796.301 33.3595L793.211 36.4492L796.301 39.539L799.391 36.4492L796.301 33.3595Z" fill="white"/>
<path d="M796.302 33.3589L793.212 36.4463L796.302 39.536V33.3589Z" fill="#00A846"/>
<path d="M799.4 30.2589L796.311 33.3486L799.4 36.4384L802.49 33.3486L799.4 30.2589Z" fill="white"/>
<path d="M799.399 30.2598L796.312 33.3495L799.399 36.4393V30.2598Z" fill="#9E1893"/>
<path d="M802.497 27.1616L799.407 30.2513L802.497 33.3411L805.587 30.2513L802.497 27.1616Z" fill="white"/>
<path d="M802.498 27.1631L799.408 30.2505L802.498 33.3402V27.1631Z" fill="#FFCE00"/>
<path d="M790.863 51.5121H813.934L810.627 54.2352H794.24L790.863 51.5121Z" fill="#FF6143"/>
</g>
<g clip-path="url(#clip13_559_829)">
<path d="M882 0H819V63H882V0Z" fill="#FF8D00"/>
<path d="M882 0H850.327V63H882V0Z" fill="#FF5800"/>
<path d="M850.829 27.4808C857.636 27.4808 863.153 21.9632 863.153 15.1568C863.153 8.35051 857.636 2.83289 850.829 2.83289C844.023 2.83289 838.505 8.35051 838.505 15.1568C838.505 21.9632 844.023 27.4808 850.829 27.4808Z" fill="#AA00C9"/>
<path d="M836.572 62.9674C836.572 62.9674 840.376 56.9607 849.538 56.9607C858.7 56.9607 862.707 62.9674 862.707 62.9674H836.574H836.572Z" fill="#00C2F8"/>
<path d="M848.858 8.38184H835.712V15.1569H848.858V8.38184Z" fill="#FFDB00"/>
<path d="M832.971 13.6832H866.171C866.171 13.6832 869.256 56.9023 850.168 56.9023C831.081 56.9023 832.971 13.6832 832.971 13.6832Z" fill="#00C2F8"/>
<path d="M858.669 0.864136C858.669 0.864136 858.749 6.10946 863.431 6.10946C863.431 6.10946 858.669 6.17719 858.669 11.7144C858.669 11.7144 859.097 6.04174 853.947 6.04174C853.947 6.04174 858.669 5.85023 858.669 0.864136Z" fill="white"/>
<path d="M841.556 26.7755C843.795 26.7755 845.61 24.9604 845.61 22.7213C845.61 20.4822 843.795 18.667 841.556 18.667C839.317 18.667 837.501 20.4822 837.501 22.7213C837.501 24.9604 839.317 26.7755 841.556 26.7755Z" fill="#FF63AB"/>
<path d="M861.773 23.5994H854.391V30.9816H861.773V23.5994Z" fill="white"/>
<path d="M849.182 32.6352L849.037 32.7805C847.776 34.041 847.776 36.0845 849.037 37.345L851.783 40.0912C853.043 41.3516 855.087 41.3516 856.347 40.0912L856.493 39.9459C857.753 38.6855 857.753 36.6419 856.493 35.3815L853.746 32.6352C852.486 31.3748 850.442 31.3748 849.182 32.6352Z" fill="#FF94C1"/>
<path d="M850.567 42.4459L845.347 47.6659L850.567 52.8859L855.787 47.6659L850.567 42.4459Z" fill="#00FA00"/>
<path d="M839.916 30.1829V41.4255C839.916 41.4255 845.488 41.1896 845.488 35.8042C845.488 30.4187 839.916 30.1829 839.916 30.1829Z" fill="#FFF446"/>
<path d="M845.86 18.4335H855.954L850.907 24.9166L845.86 18.4335Z" fill="#FFAA4A"/>
</g>
<g clip-path="url(#clip14_559_829)">
<mask id="mask5_559_829" style="mask-type:luminance" maskUnits="userSpaceOnUse" x="882" y="0" width="63" height="63">
<path d="M882 63L945 63V0L882 0V63Z" fill="white"/>
</mask>
<g mask="url(#mask5_559_829)">
<path d="M882 63L945 63V0L882 0V63Z" fill="#0056AB"/>
<path d="M945 0V63H882L945 0Z" fill="#00B0F4"/>
<path d="M945 27.1047V63H909.105L945 27.1047Z" fill="#009AF5"/>
<path d="M882 63V0H945L882 63Z" fill="#00C2F8"/>
<path d="M882 35.8952V0H917.895L882 35.8952Z" fill="#3DD1F9"/>
</g>
<path d="M927.153 17.2913H942.111L934.783 24.7202L927.153 17.2913Z" fill="#006CCF"/>
<path d="M887.04 24.7202H934.995C934.995 24.7202 934.86 49.2327 911.018 49.2327C887.175 49.2327 887.04 24.7202 887.04 24.7202Z" fill="#006CCF"/>
<path d="M889.611 9.60314C891.031 9.60314 892.183 8.45194 892.183 7.03186C892.183 5.61178 891.031 4.46057 889.611 4.46057C888.191 4.46057 887.04 5.61178 887.04 7.03186C887.04 8.45194 888.191 9.60314 889.611 9.60314Z" fill="white"/>
<path d="M896.454 13.8583C897.874 13.8583 899.025 12.7071 899.025 11.287C899.025 9.8669 897.874 8.7157 896.454 8.7157C895.034 8.7157 893.883 9.8669 893.883 11.287C893.883 12.7071 895.034 13.8583 896.454 13.8583Z" fill="white"/>
<path d="M897.638 30.7153C897.638 29.1319 896.354 27.8474 894.77 27.8474C893.187 27.8474 891.902 29.1319 891.902 30.7153H897.638Z" fill="white"/>
<path d="M899.871 28.1299C899.871 29.8114 901.232 31.1729 902.914 31.1729C904.595 31.1729 905.957 29.8114 905.957 28.1299H899.871Z" fill="#00B0F4"/>
<path d="M907.771 28.1299C907.771 29.8114 909.133 31.1729 910.815 31.1729C912.496 31.1729 913.858 29.8114 913.858 28.1299H907.771Z" fill="#00B0F4"/>
<path d="M904.079 32.8568C904.079 34.5383 905.441 35.8998 907.122 35.8998C908.804 35.8998 910.165 34.5383 910.165 32.8568H904.079Z" fill="#00B0F4"/>
<path d="M912.536 32.8568C912.536 34.5383 913.897 35.8998 915.579 35.8998C917.26 35.8998 918.622 34.5383 918.622 32.8568H912.536Z" fill="#00B0F4"/>
<path d="M908.304 37.5836C908.304 39.2651 909.665 40.6267 911.347 40.6267C913.028 40.6267 914.39 39.2651 914.39 37.5836H908.304Z" fill="#00B0F4"/>
<path d="M916.814 37.5836C916.814 39.2651 918.176 40.6267 919.857 40.6267C921.538 40.6267 922.9 39.2651 922.9 37.5836H916.814Z" fill="#00B0F4"/>
<path d="M912.536 42.3105C912.536 43.992 913.897 45.3536 915.579 45.3536C917.26 45.3536 918.622 43.992 918.622 42.3105H912.536Z" fill="#00B0F4"/>
<path d="M921.004 32.8568C921.004 34.5383 922.365 35.8998 924.047 35.8998C925.728 35.8998 927.09 34.5383 927.09 32.8568H921.004Z" fill="#00B0F4"/>
<path d="M915.74 28.1299C915.74 29.8114 917.101 31.1729 918.783 31.1729C920.464 31.1729 921.826 29.8114 921.826 28.1299H915.74Z" fill="#00B0F4"/>
<path d="M924.047 28.1299C924.047 29.8114 925.408 31.1729 927.09 31.1729C928.771 31.1729 930.133 29.8114 930.133 28.1299H924.047Z" fill="#00B0F4"/>
<path d="M891.186 20.701C892.606 20.701 893.757 19.5498 893.757 18.1298C893.757 16.7097 892.606 15.5585 891.186 15.5585C889.765 15.5585 888.614 16.7097 888.614 18.1298C888.614 19.5498 889.765 20.701 891.186 20.701Z" fill="white"/>
</g>
<g clip-path="url(#clip15_559_829)">
<path d="M1008 0H945V63H1008V0Z" fill="#00B0F4"/>
<mask id="mask6_559_829" style="mask-type:luminance" maskUnits="userSpaceOnUse" x="945" y="0" width="63" height="63">
<path d="M1008 0H945V63H1008V0Z" fill="white"/>
</mask>
<g mask="url(#mask6_559_829)">
<path d="M945 103.073C967.332 103.073 985.435 84.9698 985.435 62.638C985.435 40.3062 967.332 22.2028 945 22.2028C922.668 22.2028 904.565 40.3062 904.565 62.638C904.565 84.9698 922.668 103.073 945 103.073Z" fill="#009AF5"/>
<path d="M945 92.2276C961.342 92.2276 974.59 78.9799 974.59 62.638C974.59 46.2961 961.342 33.0483 945 33.0483C928.658 33.0483 915.411 46.2961 915.411 62.638C915.411 78.9799 928.658 92.2276 945 92.2276Z" fill="#0078F6"/>
<path d="M945 81.8701C955.622 81.8701 964.232 73.2596 964.232 62.638C964.232 52.0164 955.622 43.4059 945 43.4059C934.379 43.4059 925.768 52.0164 925.768 62.638C925.768 73.2596 934.379 81.8701 945 81.8701Z" fill="#0067F7"/>
<path d="M1008 40.7973C1030.33 40.7973 1048.44 22.6938 1048.44 0.36203C1048.44 -21.9698 1030.33 -40.0732 1008 -40.0732C985.668 -40.0732 967.565 -21.9698 967.565 0.36203C967.565 22.6938 985.668 40.7973 1008 40.7973Z" fill="#009AF5"/>
<path d="M1008 29.9516C1024.34 29.9516 1037.59 16.7039 1037.59 0.361975C1037.59 -15.9799 1024.34 -29.2277 1008 -29.2277C991.658 -29.2277 978.411 -15.9799 978.411 0.361975C978.411 16.7039 991.658 29.9516 1008 29.9516Z" fill="#0078F6"/>
<path d="M1008 19.5941C1018.62 19.5941 1027.23 10.9836 1027.23 0.361979C1027.23 -10.2596 1018.62 -18.8701 1008 -18.8701C997.379 -18.8701 988.768 -10.2596 988.768 0.361979C988.768 10.9836 997.379 19.5941 1008 19.5941Z" fill="#0067F7"/>
</g>
</g>
<g clip-path="url(#clip16_559_829)">
<mask id="mask7_559_829" style="mask-type:luminance" maskUnits="userSpaceOnUse" x="1008" y="0" width="63" height="63">
<path d="M1071 0H1008V63H1071V0Z" fill="white"/>
</mask>
<g mask="url(#mask7_559_829)">
<path d="M1071 0H1008V63H1071V0Z" fill="#00AB9C"/>
<path d="M1007.69 8.59429V47.1986H1071.31V8.90957C1071.31 8.90957 1064.55 3.46106 1053.84 3.46106C1043.12 3.46106 1038.62 13.1857 1024.35 13.1857C1019.41 13.1857 1012.59 11.1702 1007.69 8.59429H1007.69Z" fill="#0079AD"/>
<path d="M1007.69 24.3957V63H1071.31V24.711C1071.31 24.711 1064.55 19.2625 1053.84 19.2625C1043.12 19.2625 1038.62 28.9871 1024.35 28.9871C1019.41 28.9871 1012.59 26.9716 1007.69 24.3957H1007.69Z" fill="#004C83"/>
<path d="M1007.69 43.0112V62.9999H1071.31V43.3264C1071.31 43.3264 1064.55 37.8779 1053.84 37.8779C1043.12 37.8779 1038.62 47.6026 1024.35 47.6026C1019.41 47.6026 1012.59 45.5871 1007.69 43.0112H1007.69Z" fill="#6E2995"/>
<path d="M1030.01 68.243C1033.05 68.243 1035.51 65.7775 1035.51 62.7361C1035.51 59.6948 1033.05 57.2292 1030.01 57.2292C1026.97 57.2292 1024.5 59.6948 1024.5 62.7361C1024.5 65.7775 1026.97 68.243 1030.01 68.243Z" fill="#00B0F4"/>
<path d="M1050.3 70.3472C1054.51 70.3472 1057.91 66.9396 1057.91 62.7361C1057.91 58.5326 1054.51 55.125 1050.3 55.125C1046.1 55.125 1042.69 58.5326 1042.69 62.7361C1042.69 66.9396 1046.1 70.3472 1050.3 70.3472Z" fill="#FF63AB"/>
<path d="M1027.93 57.7851C1027.93 57.7851 1027.96 57.4021 1027.52 57.1101C1027.08 56.8182 1024.57 55.2418 1022.99 52.4627C1022.99 52.4627 1020.46 52.5538 1019.35 52.5071C1018.25 52.4603 1015.57 52.416 1015.23 48.9502C1015.12 47.7008 1016.42 47.5723 1016.71 47.5723C1017.8 47.5887 1017.75 49.0413 1018.01 49.3449C1018.28 49.6485 1018.47 49.875 1019.73 49.8073C1021.04 49.7513 1021.52 49.7793 1021.42 49.4243C1021.33 49.0693 1020.99 47.6004 1020.92 46.9488C1020.85 46.2972 1020.45 45.272 1020.45 45.272C1020.45 45.272 1015.87 45.5475 1015.23 40.1107C1015.15 38.8776 1016.17 38.6324 1016.52 38.6254C1016.87 38.6184 1017.8 38.7351 1017.87 39.7978C1017.95 40.7599 1018.24 42.2966 1020.15 42.4484C1020.15 42.4484 1020.3 41.8996 1020.29 41.2924C1020.28 40.6852 1019.95 39.2069 1020.01 37.9248C1020.07 36.6426 1020.81 35.7038 1021.4 35.7645C1021.99 35.8252 1022.67 35.9163 1022.67 37.2755C1022.66 38.6347 1022.6 39.6506 1022.81 39.9636C1022.81 39.9636 1024.16 40.1107 1024.7 39.0551C1025.24 37.9995 1025.68 37.0957 1026.48 37.2055C1027.29 37.3152 1027.89 37.6095 1027.89 38.4969C1027.89 39.3844 1026.62 41.3088 1025.45 42.0164C1024.29 42.7264 1023.03 42.8431 1023.03 42.8431C1023.03 42.8431 1023.44 47.6214 1024.64 49.6976C1025.83 51.7737 1026.7 52.9905 1028 53.7145C1028.2 53.8499 1028.37 52.785 1028.38 51.8998C1028.39 51.0124 1028.53 50.1787 1028.89 49.4687C1029.25 48.7587 1029.62 48.1936 1029.57 48.0581C1029.53 47.9226 1027.35 46.825 1027.32 45.4424C1027.33 44.4803 1028.33 44.2093 1028.57 44.228C1028.82 44.2467 1029.19 44.2444 1029.85 44.896C1030.52 45.5475 1031.03 45.8932 1031.16 45.5032C1031.3 45.1131 1031.71 44.3985 1031.66 42.2359C1031.61 40.0757 1030.83 39.0784 1030.82 38.4969C1030.81 37.9154 1031.38 37.028 1032.26 37.0443C1033.13 37.0607 1033.56 38.1256 1033.71 38.6908C1033.85 39.2559 1034.36 41.7899 1034.28 43.3242C1034.3 43.5438 1035.78 43.5274 1036.05 42.1425C1036.32 40.7576 1036.61 40.3372 1037.46 40.3536C1038.3 40.3699 1038.94 41.0215 1038.94 42.0584C1038.94 43.0954 1037.82 45.1575 1035.85 45.9913C1035.34 46.1687 1033.76 46.1594 1033.76 46.1594C1033.76 46.1594 1033.5 47.2734 1032.46 48.4808C1031.68 49.4337 1031.12 50.4823 1031.11 51.5192C1031.11 51.5192 1032.64 51.6289 1033.03 51.3417C1033.42 51.0451 1034.05 49.8727 1034.81 49.8984C1035.56 49.9241 1036.25 50.5149 1036.17 51.3837C1036.1 52.2525 1034.76 53.8406 1032.76 54.2282C1032.11 54.2446 1030.98 54.0087 1030.8 54.5482C1030.61 55.0877 1030.8 57.367 1030.8 57.367C1030.8 57.367 1030 60.6343 1027.93 57.7804V57.7851Z" fill="#00B0F4"/>
<path d="M1052.05 55.8C1052.05 55.8 1052.18 53.8686 1052.68 53.5393C1053.17 53.21 1055.98 51.4491 1057.74 48.3384C1057.74 48.3384 1060.58 48.4388 1061.81 48.3897C1063.05 48.3384 1066.04 48.2893 1066.42 44.4102C1066.55 43.0113 1065.09 42.8665 1064.77 42.8665C1063.55 42.8852 1063.61 44.5106 1063.31 44.8492C1063.02 45.1879 1062.8 45.4401 1061.39 45.3654C1059.93 45.3023 1059.39 45.335 1059.5 44.938C1059.6 44.541 1059.99 42.8968 1060.06 42.1682C1060.14 41.4372 1060.59 40.2929 1060.59 40.2929C1060.59 40.2929 1065.71 40.6011 1066.43 34.5197C1066.52 33.1418 1065.37 32.8663 1064.98 32.8569C1064.59 32.8476 1063.55 32.9807 1063.47 34.1694C1063.39 35.246 1063.06 36.9649 1060.92 37.1354C1060.92 37.1354 1060.75 36.5212 1060.76 35.8416C1060.77 35.162 1061.15 33.5085 1061.08 32.0722C1061.02 30.636 1060.19 29.5874 1059.53 29.6551C1058.87 29.7228 1058.1 29.8256 1058.1 31.3459C1058.11 32.8663 1058.18 34.0036 1057.94 34.3539C1057.94 34.3539 1056.44 34.5197 1055.83 33.338C1055.23 32.1563 1054.74 31.1474 1053.84 31.2688C1052.94 31.3903 1052.26 31.7219 1052.26 32.7145C1052.26 33.707 1053.69 35.8603 1054.99 36.652C1056.3 37.446 1057.7 37.5768 1057.7 37.5768C1057.7 37.5768 1057.25 42.9225 1055.91 45.2463C1054.57 47.57 1053.6 48.9292 1052.14 49.7419C1051.92 49.8937 1051.73 48.7027 1051.72 47.7101C1051.71 46.7176 1051.56 45.7834 1051.15 44.9894C1050.74 44.1953 1050.33 43.5624 1050.38 43.413C1050.44 43.2635 1052.88 42.0351 1052.91 40.4844C1052.9 39.4077 1051.78 39.1065 1051.51 39.1252C1051.23 39.1438 1050.82 39.1438 1050.07 39.8725C1049.32 40.6011 1048.76 40.9865 1048.61 40.5521C1048.45 40.1177 1047.99 39.3143 1048.05 36.8972C1048.1 34.48 1048.97 33.3637 1048.98 32.7121C1048.99 32.0606 1048.36 31.068 1047.38 31.0867C1046.39 31.1054 1045.91 32.2964 1045.75 32.9293C1045.59 33.5622 1045.02 36.3951 1045.11 38.1139C1045.09 38.3591 1043.44 38.3405 1043.13 36.7921C1042.83 35.2437 1042.5 34.772 1041.56 34.7906C1040.61 34.8093 1039.9 35.538 1039.9 36.6987C1039.9 37.8594 1041.15 40.1644 1043.35 41.1009C1043.93 41.2994 1045.69 41.2901 1045.69 41.2901C1045.69 41.2901 1045.99 42.5372 1047.15 43.8871C1048.02 44.9543 1048.65 46.1267 1048.66 47.2874C1048.66 47.2874 1046.95 47.4112 1046.51 47.0889C1046.07 46.7573 1045.36 45.4448 1044.52 45.4728C1043.68 45.5008 1042.91 46.1618 1042.99 47.1356C1043.08 48.1095 1044.57 49.8844 1046.82 50.3188C1047.55 50.3375 1048.8 50.0736 1049.01 50.6784C1049.22 51.2833 1049.05 55.835 1049.05 55.835C1049.05 55.835 1049.74 58.9948 1052.05 55.8023V55.8Z" fill="#FF63AB"/>
</g>
</g>
<g clip-path="url(#clip17_559_829)">
<mask id="mask8_559_829" style="mask-type:luminance" maskUnits="userSpaceOnUse" x="1071" y="0" width="63" height="63">
<path d="M1134 0H1071V63H1134V0Z" fill="white"/>
</mask>
<g mask="url(#mask8_559_829)">
<path d="M1134 0H1071V63H1134V0Z" fill="#2D3197"/>
<path d="M1128.69 26.6237C1128.69 26.6237 1126.71 22.2121 1121.15 22.3242C1115.58 22.4363 1108.47 27.3664 1107.26 33.9382C1106.04 40.51 1106.9 47.4882 1114.37 52.3506C1121.84 57.2129 1131.87 57.1218 1131.87 57.1218H1139.22V63.6796H1102.17C1102.17 63.6796 1088.84 53.3384 1089.34 40.5988C1089.83 27.8591 1092.76 21.8244 1101.81 18.5385C1110.86 15.2526 1124.42 16.2545 1127.63 23.242C1127.63 23.242 1128.47 25.2902 1128.69 26.619V26.6237Z" fill="#0056AB"/>
<path d="M1120.63 63.682C1120.63 63.682 1098.79 59.24 1096.99 41.7712C1095.19 24.3023 1106.54 18.361 1112.75 18.0014C1118.96 17.6417 1124.86 19.7576 1127.47 23.8095C1127.47 23.8095 1127.32 21.8408 1123.74 17.9617C1120.16 14.0849 1104.11 6.43176 1094.92 11.969C1085.74 17.5063 1068.9 27.4551 1071.87 43.3032C1074.84 59.1513 1079.34 63.6843 1079.34 63.6843H1120.63V63.682Z" fill="#0074C1"/>
<path d="M1096.9 63.6819H1043.01C1043.01 63.6819 1060.12 28.5808 1077.63 13.3189C1095.15 -1.94305 1122.83 5.84555 1126.44 21.5138C1126.44 21.5138 1121.75 14.7598 1109.37 14.8065C1096.99 14.8532 1085.65 22.0556 1084.73 36.8668C1083.8 51.6779 1090.22 59.0111 1096.9 63.6843V63.6819Z" fill="#00A5D3"/>
</g>
</g>
<g clip-path="url(#clip18_559_829)">
<path d="M1197 0H1134V63H1197V0Z" fill="#FF5800"/>
<path d="M1159.44 56.204C1154.39 56.1502 1149.58 55.111 1145.08 52.7522C1143.33 51.8321 1141.7 50.7298 1140.4 49.2047C1139.91 48.6256 1139.47 47.9833 1139.13 47.3061C1138.2 45.4237 1138.53 43.462 1140.03 41.986C1140.68 41.3414 1141.43 40.7903 1142.17 40.2344C1145.52 37.6912 1148.1 34.508 1150.09 30.8204C1151.46 28.2771 1152.55 25.6078 1153.69 22.9618C1154.8 20.3998 1155.98 17.8706 1157.56 15.5538C1159.22 13.1273 1161.16 10.9811 1163.64 9.36733C1165.91 7.88902 1168.4 7.00623 1171.09 6.72832C1175.34 6.28926 1179.29 7.20708 1182.9 9.49578C1185.84 11.3641 1188 13.8957 1189.09 17.2563C1189.61 18.8748 1189.74 20.5469 1189.65 22.2354C1189.38 27.4527 1187.7 32.28 1185.52 36.9579C1184.03 40.1434 1182.32 43.2074 1180.26 46.0613C1176.48 51.316 1171.33 54.4501 1165 55.6902C1163.17 56.0498 1161.31 56.2156 1159.44 56.2063L1159.44 56.204Z" fill="#FFD500"/>
<path d="M1181.93 15.2012L1175.81 11.4764L1172.08 17.6027L1178.21 21.3275L1181.93 15.2012Z" fill="#FFF446"/>
<path d="M1170.72 8.38524L1174.81 10.8688L1171.08 16.9951L1164.96 13.2703L1167.44 9.18545C1168.12 8.05799 1169.59 7.69973 1170.72 8.38524Z" fill="#FFF446"/>
<path d="M1170.41 18.0997L1164.28 14.3749L1160.56 20.5011L1166.69 24.2259L1170.41 18.0997Z" fill="#FFF446"/>
<path d="M1165.68 25.8792L1159.55 22.1544L1155.83 28.2806L1161.95 32.0054L1165.68 25.8792Z" fill="#FFF446"/>
<path d="M1161.42 33.551L1155.29 29.8262L1151.57 35.9524L1157.69 39.6772L1161.42 33.551Z" fill="#FFF446"/>
<path d="M1156.55 40.892L1150.43 37.1672L1146.7 43.2935L1152.83 47.0183L1156.55 40.892Z" fill="#FFF446"/>
<path d="M1183.07 15.8938L1186.81 18.1663C1188.13 18.9683 1188.54 20.6882 1187.74 22.0072L1185.47 25.7448L1179.34 22.02L1183.07 15.8938Z" fill="#FFF446"/>
<path d="M1184.8 26.8514L1178.67 23.1266L1174.95 29.2528L1181.07 32.9776L1184.8 26.8514Z" fill="#FFF446"/>
<path d="M1180.07 34.629L1173.94 30.9042L1170.22 37.0304L1176.35 40.7552L1180.07 34.629Z" fill="#FFF446"/>
<path d="M1175.39 42.3155L1169.27 38.5907L1165.54 44.7169L1171.67 48.4417L1175.39 42.3155Z" fill="#FFF446"/>
<path d="M1164.81 45.9135L1170.94 49.6383L1169.76 51.5859C1168.35 53.8927 1165.34 54.6264 1163.04 53.2238L1161.09 52.0397L1164.81 45.9135Z" fill="#FFF446"/>
<path d="M1177.53 22.434L1171.41 18.7092L1167.68 24.8354L1173.81 28.5602L1177.53 22.434Z" fill="#FFF446"/>
<path d="M1172.8 30.2116L1166.68 26.4868L1162.95 32.613L1169.08 36.3378L1172.8 30.2116Z" fill="#FFF446"/>
<path d="M1168.08 37.8701L1161.95 34.1453L1158.23 40.2715L1164.36 43.9963L1168.08 37.8701Z" fill="#FFF446"/>
<path d="M1163.56 45.4149L1157.43 41.6901L1153.71 47.8163L1159.84 51.5411L1163.56 45.4149Z" fill="#FFF446"/>
</g>
<g clip-path="url(#clip19_559_829)">
<path d="M1260 0H1197V63H1260V0Z" fill="#00A847"/>
<path d="M1229.27 4.57507C1229.27 4.57507 1227.87 5.58631 1227.87 8.14124C1227.87 10.6962 1229.27 12.1511 1229.27 12.1511C1229.27 12.1511 1230.67 11.1399 1230.67 8.58497C1230.67 6.03003 1229.27 4.57507 1229.27 4.57507Z" fill="white"/>
<path d="M1238.67 6.91052C1238.67 6.91052 1237.07 7.54108 1236.43 10.0166C1235.8 12.4922 1236.79 14.2484 1236.79 14.2484C1236.79 14.2484 1238.4 13.6178 1239.03 11.1423C1239.67 8.66675 1238.67 6.91052 1238.67 6.91052Z" fill="white"/>
<path d="M1248 11.628C1248 11.628 1246.32 11.2357 1244.39 12.9125C1242.46 14.5893 1242.28 16.6001 1242.28 16.6001C1242.28 16.6001 1243.96 16.9924 1245.89 15.3156C1247.82 13.6388 1248 11.628 1248 11.628Z" fill="white"/>
<path d="M1255.88 31.124C1255.88 31.124 1254.91 29.7018 1252.36 29.6387C1249.8 29.5757 1248.31 30.9395 1248.31 30.9395C1248.31 30.9395 1249.29 32.3618 1251.84 32.4249C1254.39 32.4879 1255.88 31.124 1255.88 31.124Z" fill="white"/>
<path d="M1253.23 20.6544C1253.23 20.6544 1251.67 19.9117 1249.43 21.1378C1247.19 22.3639 1246.58 24.2883 1246.58 24.2883C1246.58 24.2883 1248.14 25.0309 1250.38 23.8048C1252.62 22.5788 1253.23 20.6544 1253.23 20.6544Z" fill="white"/>
<path d="M1252.83 39.7183C1252.83 39.7183 1252.23 38.0998 1249.77 37.4086C1247.31 36.7196 1245.53 37.6725 1245.53 37.6725C1245.53 37.6725 1246.13 39.2909 1248.59 39.9822C1251.05 40.6711 1252.83 39.7183 1252.83 39.7183Z" fill="white"/>
<path d="M1248.19 47.7685C1248.19 47.7685 1248.22 46.0426 1246.18 44.5106C1244.14 42.9762 1242.13 43.2214 1242.13 43.2214C1242.13 43.2214 1242.1 44.9473 1244.14 46.4793C1246.19 48.0113 1248.19 47.7685 1248.19 47.7685Z" fill="white"/>
<path d="M1239.78 54.8284C1239.78 54.8284 1240.46 53.2427 1239.15 51.0521C1237.83 48.8591 1235.89 48.329 1235.89 48.329C1235.89 48.329 1235.2 49.9147 1236.52 52.1053C1237.83 54.2959 1239.78 54.8284 1239.78 54.8284Z" fill="white"/>
<path d="M1229.24 57.813C1229.24 57.813 1230.65 56.8135 1230.67 54.2585C1230.69 51.7036 1229.3 50.2369 1229.3 50.2369C1229.3 50.2369 1227.89 51.2365 1227.88 53.7914C1227.86 56.3464 1229.24 57.813 1229.24 57.813Z" fill="white"/>
<path d="M1220.28 55.6061C1220.28 55.6061 1221.9 54.9943 1222.56 52.5281C1223.23 50.0619 1222.26 48.2916 1222.26 48.2916C1222.26 48.2916 1220.65 48.9035 1219.98 51.3697C1219.31 53.8359 1220.29 55.6061 1220.29 55.6061H1220.28Z" fill="white"/>
<path d="M1211.43 50.6784C1211.43 50.6784 1213.16 50.7181 1214.7 48.684C1216.25 46.6475 1216.01 44.6437 1216.01 44.6437C1216.01 44.6437 1214.29 44.604 1212.75 46.6382C1211.2 48.6746 1211.43 50.6784 1211.43 50.6784Z" fill="white"/>
<path d="M1205.69 40.6595C1205.69 40.6595 1207.24 41.4092 1209.49 40.1948C1211.74 38.9803 1212.35 37.0583 1212.35 37.0583C1212.35 37.0583 1210.8 36.3086 1208.55 37.5231C1206.3 38.7375 1205.69 40.6595 1205.69 40.6595Z" fill="white"/>
<path d="M1202.69 30.9115C1202.69 30.9115 1203.71 32.2987 1206.27 32.273C1208.82 32.2474 1210.27 30.8344 1210.27 30.8344C1210.27 30.8344 1209.24 29.4472 1206.68 29.4729C1204.13 29.4986 1202.69 30.9115 1202.69 30.9115Z" fill="white"/>
<path d="M1204.37 21.2079C1204.37 21.2079 1204.95 22.831 1207.41 23.534C1209.86 24.2369 1211.65 23.2958 1211.65 23.2958C1211.65 23.2958 1211.06 21.6727 1208.61 20.9697C1206.15 20.2667 1204.37 21.2079 1204.37 21.2079Z" fill="white"/>
<path d="M1209.85 12.5598C1209.85 12.5598 1209.76 14.2834 1211.75 15.8855C1213.74 17.4876 1215.75 17.3124 1215.75 17.3124C1215.75 17.3124 1215.84 15.5889 1213.85 13.9868C1211.86 12.3847 1209.85 12.5598 1209.85 12.5598Z" fill="white"/>
<path d="M1218.32 7.41956C1218.32 7.41956 1217.6 8.98895 1218.86 11.2099C1220.12 13.4309 1222.06 14.0054 1222.06 14.0054C1222.06 14.0054 1222.78 12.436 1221.51 10.215C1220.25 7.99407 1218.32 7.41956 1218.32 7.41956H1218.32Z" fill="white"/>
<path d="M1226.06 21.0117H1232.71C1232.71 21.0117 1233.08 16.7565 1229.27 13.1624C1229.27 13.1624 1226.14 15.6099 1226.06 21.0117Z" fill="#FF8B00"/>
<path d="M1225.66 15.4791L1222.14 16.2872C1222.14 16.2872 1222.46 18.5829 1224.92 20.0215C1224.92 20.0215 1226.27 18.3447 1225.66 15.4768V15.4791Z" fill="#FFFF00"/>
<path d="M1237.32 17.8729L1234.26 15.9556C1234.26 15.9556 1232.87 17.8052 1233.58 20.5563C1233.58 20.5563 1235.73 20.3321 1237.32 17.8706V17.8729Z" fill="#FFFF00"/>
<path d="M1221.19 44.9146L1224.43 46.2622C1224.43 46.2622 1225.48 44.2654 1224.35 41.7432C1224.35 41.7432 1222.33 42.3013 1221.2 44.9146H1221.19Z" fill="#FFFF00"/>
<path d="M1213.96 34.2442L1214.69 37.6749C1214.69 37.6749 1216.92 37.3993 1218.36 35.0405C1218.36 35.0405 1216.75 33.6953 1213.96 34.2465V34.2442Z" fill="#FFFF00"/>
<path d="M1242.32 38.9243L1244.23 35.9817C1244.23 35.9817 1242.45 34.5968 1239.77 35.2507C1239.77 35.2507 1239.96 37.3386 1242.32 38.9267V38.9243Z" fill="#FFFF00"/>
<path d="M1233.67 46.7175L1236.98 45.5475C1236.98 45.5475 1236.42 43.3662 1233.89 42.2476C1233.89 42.2476 1232.76 44.0155 1233.67 46.7175Z" fill="#FFFF00"/>
<path d="M1215.49 22.2915L1213.62 25.3766C1213.62 25.3766 1215.48 26.7498 1218.23 25.9978C1218.23 25.9978 1217.97 23.8539 1215.49 22.2915Z" fill="#FFFF00"/>
<path d="M1244.43 26.8269L1243.57 23.3191C1243.57 23.3191 1241.28 23.6694 1239.88 26.1403C1239.88 26.1403 1241.57 27.4785 1244.43 26.8269Z" fill="#FFFF00"/>
<path d="M1233.7 21.6236L1238.16 26.5583C1238.16 26.5583 1241.56 23.98 1241.68 18.7464C1241.68 18.7464 1237.76 18.0644 1233.7 21.6259V21.6236Z" fill="#76FF00"/>
<path d="M1239.2 27.4387L1239.06 34.09C1239.06 34.09 1243.31 34.5524 1246.98 30.8204C1246.98 30.8204 1244.6 27.6372 1239.2 27.4387Z" fill="#FF8B00"/>
<path d="M1237.86 35.1595L1233.3 40.0032C1233.3 40.0032 1236.14 43.1887 1241.37 42.8827C1241.37 42.8827 1241.73 38.9242 1237.86 35.1595Z" fill="#76FF00"/>
<path d="M1224.68 40.2064L1220.01 35.316C1220.01 35.316 1216.62 38.0345 1216.65 43.3615C1216.65 43.3615 1220.65 43.943 1224.68 40.2064Z" fill="#76FF00"/>
<path d="M1228.91 38.2003C1232.97 38.2003 1236.27 34.9046 1236.27 30.8391C1236.27 26.7736 1232.97 23.4779 1228.91 23.4779C1224.84 23.4779 1221.55 26.7736 1221.55 30.8391C1221.55 34.9046 1224.84 38.2003 1228.91 38.2003Z" fill="#FFF700"/>
<path d="M1219.44 34.0199L1219.58 27.3687C1219.58 27.3687 1215.34 26.9063 1211.66 30.6383C1211.66 30.6383 1214.04 33.8214 1219.44 34.0199Z" fill="#FF8B00"/>
<path d="M1219.72 25.9207L1224.56 21.355C1224.56 21.355 1221.91 18.006 1216.68 18.0037C1216.68 18.0037 1216.08 21.9342 1219.72 25.9207Z" fill="#76FF00"/>
<path d="M1232.26 40.6198H1225.61C1225.61 40.6198 1225.24 44.8749 1229.04 48.4714C1229.04 48.4714 1232.18 46.0239 1232.26 40.6198Z" fill="#FF8B00"/>
<path d="M1228.91 23.4779C1224.84 23.4779 1221.55 26.7732 1221.55 30.8391H1228.91V23.4779Z" fill="#FF5833"/>
<path d="M1228.91 38.2003C1232.97 38.2003 1236.27 34.9051 1236.27 30.8391H1228.91V38.2003Z" fill="#FF5833"/>
</g>
<g clip-path="url(#clip20_559_829)">
<path d="M1323 0H1260V63H1323V0Z" fill="#7BC70F"/>
<path d="M1280.5 20.3717C1262.13 38.3357 1264.49 59.4034 1264.49 59.4034L1319.06 3.48905C1319.06 3.48905 1298.87 2.40775 1280.5 20.3717Z" fill="#00A846"/>
<path d="M1319.06 3.48901L1264.49 59.4034C1264.49 59.4034 1286.28 61.9023 1304.65 43.9383C1323.02 25.9767 1319.06 3.48901 1319.06 3.48901Z" fill="#00A846"/>
<path d="M1319.06 3.48901L1264.49 59.4034C1264.49 59.4034 1286.28 61.9023 1304.65 43.9383C1323.02 25.9743 1319.06 3.48901 1319.06 3.48901Z" fill="#008D41"/>
<path d="M1310.95 11.7867C1308.57 9.46068 1304.75 9.50739 1302.43 11.8918C1300.1 14.274 1300.15 18.09 1302.53 20.4161L1310.95 11.7867Z" fill="white"/>
<path d="M1278.59 44.9403C1276.24 42.5862 1272.42 42.5862 1270.07 44.9403C1267.71 47.2943 1267.71 51.1104 1270.07 53.4645L1278.59 44.9403Z" fill="white"/>
<path d="M1288.84 22.8519C1287.25 21.2639 1284.68 21.2639 1283.09 22.8519C1281.5 24.44 1281.5 27.016 1283.09 28.6041L1288.84 22.8519Z" fill="#7BC70F"/>
<path d="M1297.98 19.3091L1297.62 25.7408L1304.08 25.4372L1297.98 19.3091Z" fill="#00FFFF"/>
<path d="M1297.62 25.7081C1297.62 25.7081 1292.47 24.1201 1285.54 30.6709C1281.26 34.6878 1280.38 40.496 1280.68 42.6235C1280.68 42.6235 1287.6 43.5343 1293.28 37.154C1296.69 33.7093 1298.51 28.2561 1297.62 25.7081Z" fill="#00FFFF"/>
<path d="M1287.03 19.2297L1293.1 21.6609L1294.05 15.2455L1287.03 19.2297Z" fill="#FFAA4A"/>
<path d="M1279.84 29.5143L1278.22 29.0785C1277.4 28.8589 1276.56 29.3444 1276.34 30.1629L1274.55 36.8169C1274.33 37.6354 1274.82 38.4769 1275.64 38.6965L1277.26 39.1323C1278.08 39.3519 1278.92 38.8664 1279.14 38.048L1280.92 31.3939C1281.14 30.5754 1280.66 29.7339 1279.84 29.5143Z" fill="#FF627A"/>
<path d="M1315.34 18.944L1314.98 17.5529C1314.8 16.8509 1314.09 16.428 1313.39 16.6084L1307.68 18.0735C1306.98 18.2539 1306.56 18.9693 1306.74 19.6714L1307.1 21.0625C1307.28 21.7645 1307.99 22.1874 1308.69 22.007L1314.4 20.5419C1315.1 20.3615 1315.52 19.6461 1315.34 18.944Z" fill="#FFAA4A"/>
<path d="M1281.47 53.468C1282.27 51.8098 1281.91 49.9815 1280.66 49.3843C1279.42 48.7871 1277.76 49.6472 1276.97 51.3054C1276.17 52.9635 1276.54 54.7919 1277.78 55.389C1279.02 55.9862 1280.68 55.1261 1281.47 53.468Z" fill="#FF627A"/>
<path d="M1312.73 28.4271C1313.67 27.415 1313.33 25.5809 1311.98 24.3305C1310.63 23.0801 1308.78 22.8869 1307.84 23.8991C1306.9 24.9112 1307.24 26.7453 1308.59 27.9957C1309.93 29.2461 1311.79 29.4392 1312.73 28.4271Z" fill="#FF627A"/>
<path d="M1289.56 46.1686H1284.49V51.2341H1289.56V46.1686Z" fill="#FF8D00"/>
<path d="M1291.02 40.9502L1291.88 40.4527L1294.96 45.7781C1295.45 46.6255 1295.15 47.7134 1294.31 48.2026L1293.44 48.7001L1290.37 43.3748C1289.88 42.5273 1290.17 41.4395 1291.02 40.9502Z" fill="#FFAA4A"/>
<path d="M1299.31 34.2476L1299.92 33.4681L1304.74 37.2884C1305.51 37.8964 1305.64 39.0152 1305.03 39.7819L1304.41 40.5615L1299.59 36.7412C1298.83 36.1332 1298.7 35.0144 1299.31 34.2476Z" fill="#FFF446"/>
<path d="M1301.53 42.7321L1300.85 43.4617C1300.19 44.1793 1299.06 44.222 1298.35 43.5567L1293.84 39.3764L1294.51 38.6468C1295.18 37.9291 1296.3 37.8865 1297.02 38.5517L1301.53 42.7321Z" fill="#FF8647"/>
<path d="M1309.8 32.9269L1309.29 33.7794C1308.79 34.6179 1307.69 34.8898 1306.85 34.3854L1301.58 31.2156L1302.1 30.3631C1302.6 29.5246 1303.7 29.2527 1304.53 29.7571L1309.8 32.9269Z" fill="#FF8647"/>
<mask id="mask9_559_829" style="mask-type:luminance" maskUnits="userSpaceOnUse" x="1264" y="3" width="56" height="57">
<path d="M1319.06 3.48901L1264.49 59.4034C1264.49 59.4034 1286.28 61.9023 1304.65 43.9383C1323.02 25.9743 1319.06 3.48901 1319.06 3.48901Z" fill="white"/>
</mask>
<g mask="url(#mask9_559_829)">
<path d="M1297.98 19.3091L1297.62 25.7408L1304.08 25.4372L1297.98 19.3091Z" fill="#00B0F4"/>
<path d="M1297.62 25.7081C1297.62 25.7081 1292.47 24.1201 1285.55 30.6709C1281.26 34.6878 1280.38 40.496 1280.68 42.6235C1280.68 42.6235 1287.61 43.5343 1293.28 37.154C1296.69 33.7093 1298.51 28.2561 1297.62 25.7081Z" fill="#00B0F4"/>
</g>
</g>
<g clip-path="url(#clip21_559_829)">
<path d="M1386 0H1323V63H1386V0Z" fill="#C70000"/>
<path d="M1331.56 8.55927L1323 17.1185V0H1340.12L1331.56 8.55927Z" fill="#FF5800"/>
<path d="M1377.44 54.4407L1386 45.8815V63H1368.88L1377.44 54.4407Z" fill="#FF0000"/>
<path d="M1353.95 52.11C1365.33 52.11 1374.56 42.8826 1374.56 31.5C1374.56 20.1174 1365.33 10.89 1353.95 10.89C1342.57 10.89 1333.34 20.1174 1333.34 31.5C1333.34 42.8826 1342.57 52.11 1353.95 52.11Z" fill="#FF5700"/>
<path d="M1374.56 31.5C1374.56 42.8828 1365.33 52.11 1353.95 52.11C1342.57 52.11 1333.34 42.8828 1333.34 31.5H1374.56Z" fill="#FF0006"/>
</g>
<g clip-path="url(#clip22_559_829)">
<path d="M1386 63L1449 63V0L1386 0V63Z" fill="#FF5800"/>
<path d="M1440.44 8.55927L1449 17.1185V0H1431.88L1440.44 8.55927Z" fill="#FFBC00"/>
<path d="M1394.56 54.4407L1386 45.8815V63H1403.12L1394.56 54.4407Z" fill="#FFBC00"/>
<path d="M1416.95 52.11C1428.33 52.11 1437.56 42.8826 1437.56 31.5C1437.56 20.1174 1428.33 10.89 1416.95 10.89C1405.57 10.89 1396.34 20.1174 1396.34 31.5C1396.34 42.8826 1405.57 52.11 1416.95 52.11Z" fill="#FFBC00"/>
<path d="M1437.56 31.5C1437.56 42.8828 1428.33 52.11 1416.95 52.11C1405.57 52.11 1396.34 42.8828 1396.34 31.5H1437.56Z" fill="#FF0006"/>
</g>
<g clip-path="url(#clip23_559_829)">
<path d="M1449 63L1512 63V0L1449 0V63Z" fill="#0087A9"/>
<mask id="mask10_559_829" style="mask-type:luminance" maskUnits="userSpaceOnUse" x="1449" y="0" width="63" height="63">
<path d="M1449 63L1512 63V0L1449 0V63Z" fill="white"/>
</mask>
<g mask="url(#mask10_559_829)">
<g style="mix-blend-mode:overlay">
<path d="M1461.25 35.5847C1473.38 35.5847 1483.21 25.755 1483.21 13.6295C1483.21 1.50399 1473.38 -8.32568 1461.25 -8.32568C1449.13 -8.32568 1439.3 1.50399 1439.3 13.6295C1439.3 25.755 1449.13 35.5847 1461.25 35.5847Z" fill="#7BC70F"/>
</g>
<g style="mix-blend-mode:overlay">
<path d="M1481.03 40.2882C1486.11 40.2882 1490.22 36.1696 1490.22 31.0891C1490.22 26.0085 1486.11 21.8899 1481.03 21.8899C1475.94 21.8899 1471.83 26.0085 1471.83 31.0891C1471.83 36.1696 1475.94 40.2882 1481.03 40.2882Z" fill="#7BC70F"/>
</g>
<g style="mix-blend-mode:overlay">
<path d="M1473.88 11.8522C1473.88 11.8522 1478.67 5.75211 1487.21 5.41347C1495.76 5.07484 1500.21 8.51957 1501.09 9.39768C1501.09 9.39768 1496.77 15.7453 1488.36 16.5557C1479.95 17.3661 1473.88 11.8522 1473.88 11.8522Z" fill="#7BC70F"/>
</g>
<g style="mix-blend-mode:overlay">
<path d="M1462.97 25.8413C1462.97 25.8413 1468.72 31.0446 1468.47 39.5899C1468.22 48.1351 1464.48 52.3435 1463.54 53.1586C1463.54 53.1586 1457.51 48.4084 1457.28 39.9659C1457.05 31.5234 1462.97 25.839 1462.97 25.839V25.8413Z" fill="#7BC70F"/>
</g>
</g>
</g>
<defs>
<clipPath id="clip0_559_829">
<rect width="63" height="63" fill="white"/>
</clipPath>
<clipPath id="clip1_559_829">
<rect width="63" height="63" fill="white" transform="translate(63)"/>
</clipPath>
<clipPath id="clip2_559_829">
<rect width="63" height="63" fill="white" transform="translate(126)"/>
</clipPath>
<clipPath id="clip3_559_829">
<rect width="63" height="63" fill="white" transform="translate(189)"/>
</clipPath>
<clipPath id="clip4_559_829">
<rect width="63" height="63" fill="white" transform="translate(252)"/>
</clipPath>
<clipPath id="clip5_559_829">
<rect width="63" height="63" fill="white" transform="translate(315)"/>
</clipPath>
<clipPath id="clip6_559_829">
<rect width="63" height="63" fill="white" transform="translate(378)"/>
</clipPath>
<clipPath id="clip7_559_829">
<rect width="63" height="63" fill="white" transform="translate(441)"/>
</clipPath>
<clipPath id="clip8_559_829">
<rect width="63" height="63" fill="white" transform="translate(504)"/>
</clipPath>
<clipPath id="clip9_559_829">
<rect width="63" height="63" fill="white" transform="translate(567)"/>
</clipPath>
<clipPath id="clip10_559_829">
<rect width="63" height="63" fill="white" transform="translate(630)"/>
</clipPath>
<clipPath id="clip11_559_829">
<rect width="63" height="63" fill="white" transform="translate(693)"/>
</clipPath>
<clipPath id="clip12_559_829">
<rect width="63" height="63" fill="white" transform="translate(756)"/>
</clipPath>
<clipPath id="clip13_559_829">
<rect width="63" height="63" fill="white" transform="translate(819)"/>
</clipPath>
<clipPath id="clip14_559_829">
<rect width="63" height="63" fill="white" transform="translate(882)"/>
</clipPath>
<clipPath id="clip15_559_829">
<rect width="63" height="63" fill="white" transform="translate(945)"/>
</clipPath>
<clipPath id="clip16_559_829">
<rect width="63" height="63" fill="white" transform="translate(1008)"/>
</clipPath>
<clipPath id="clip17_559_829">
<rect width="63" height="63" fill="white" transform="translate(1071)"/>
</clipPath>
<clipPath id="clip18_559_829">
<rect width="63" height="63" fill="white" transform="translate(1134)"/>
</clipPath>
<clipPath id="clip19_559_829">
<rect width="63" height="63" fill="white" transform="translate(1197)"/>
</clipPath>
<clipPath id="clip20_559_829">
<rect width="63" height="63" fill="white" transform="translate(1260)"/>
</clipPath>
<clipPath id="clip21_559_829">
<rect width="63" height="63" fill="white" transform="translate(1323)"/>
</clipPath>
<clipPath id="clip22_559_829">
<rect width="63" height="63" fill="white" transform="translate(1386)"/>
</clipPath>
<clipPath id="clip23_559_829">
<rect width="63" height="63" fill="white" transform="translate(1449)"/>
</clipPath>
</defs>
</svg>
