<svg version="1.2" xmlns="http://www.w3.org/2000/svg" viewBox="0 0 1500 2000" width="1500" height="2000">
	<defs>
		<clipPath clipPathUnits="userSpaceOnUse" id="cp1">
			<path d="m1492.3 2000.73l-1500 0.56 7.33-2001.01 1500-0.56z"/>
		</clipPath>
		<clipPath clipPathUnits="userSpaceOnUse" id="cp2">
			<path d="m211.7 1406.28c-1.59-0.13-3.16-0.19-4.72-0.1-3.97 0.25-7.6 1.32-11.6 0.45-9.97-2.15-16.48-10.85-21.58-19.03-11.02-17.72-23.19-34.52-34.34-52.27-11.32-18.03-23.07-36.08-33.17-54.84-6.8 5.88-11.57 7.17-18.73 11.52 1.65 3.51 5.07 9.21 6.39 11.48q7.32 12.57 14.65 25.13c9.52 16.35 19.24 32.61 28.58 49.07 4.67 8.23 10.09 16.01 15.02 24.1 3.82 6.26 10.55 14.01 10.45 21.8-0.14 9.75-8.75 19.4-11.63 28.51-2.82 8.93-2.46 18.83 0.99 27.54 3.46 8.7 9.99 16.15 18.17 20.72 2.35 1.31 4.85 2.41 6.96 4.08 9.25 7.29 4.32 19.2 3.23 29-1.14 10.38-0.95 21.06 2.07 31.06 3.01 10 9.05 19.32 17.83 24.99 5.25 3.38 11.3 5.48 17.4 6.68 6.31 1.24 12.02 1.03 18.42 0.3 13.24-1.52 26.35-4.78 38.51-10.3 6.76-3.08 13.22-6.85 19.13-11.35 9.73-7.39 18.43-17.12 22.7-28.73 3.92-10.65 3.79-22.36 0.76-33.21-2.14-7.67-5.63-14.92-9.97-21.57-5.13-7.86-12.29-14.71-21.17-17.72-5.37-1.82-11.1-2.17-16.62-3.43-6.99-1.59-14.14-4.37-16.19-12-1.2-4.44-0.24-9.13-0.13-13.73 0.44-18.96-15.07-36.42-33.91-37.45-2.49-0.13-5-0.5-7.5-0.7z"/>
		</clipPath>
		<clipPath clipPathUnits="userSpaceOnUse" id="cp3">
			<path d="m1082.35 1535.77c-1.12 15.17 4.41 29.43 12.77 40.71 19.47 26.26 50.31 42.77 76.68 60.61q13.06 8.83 26.13 17.67c15.29 9.7 30.53 19.5 45.74 29.3q1.79-2.22 3.69-4.35 0.51-0.55 1.07-0.85 0.03-0.04 0.06-0.07c0.95-1.4 2.24-1.71 3.32-1.39-0.6-1.26-0.58-2.91 0.33-4.2 1.33-1.91 3.72-2.73 5.51-1.6 1.67 1.06 2.2 3.73 0.87 5.63-1.19 1.71-3.23 2.53-4.93 1.87 0.19 0.55 0.24 1.17 0.03 1.85 0.3 0.81 0.34 1.74-0.02 2.71q-1 2.72-2.17 5.39 8.71 5.6 17.43 11.18 1.52-1.97 3.08-3.91c1.08-1.33 2.74-1.89 4.22-1.79-0.97-1.8-0.99-4.27 0.36-6.19 1.88-2.7 5.26-3.86 7.79-2.25 2.37 1.49 3.12 5.27 1.24 7.97-1.51 2.16-3.97 3.31-6.2 2.86 0.12 0.68 0.02 1.5-0.43 2.44q-1.33 2.81-2.73 5.57 2.58 1.66 5.17 3.31 4.67 2.98 9.33 6c0.91-0.9 1.82-1.81 2.76-2.63 1.25-1.09 2.76-1.31 4.04-0.94-1.08-1.37-1.27-3.57-0.11-5.24 1.42-2.04 3.97-2.91 5.89-1.7 1.78 1.13 2.35 3.98 0.94 6.02-1.18 1.68-3.13 2.55-4.85 2.12 0.72 0.91 1 2.2 0.42 3.74q-0.7 1.82-1.49 3.63c7.87 5.23 15.64 10.59 23.21 16.25 11.27 8.41 25.01 17.53 33.3 29.28 2.08 2.95 3.57 6.4 4.13 10.16 1.01 6.71-3.63 11.49 2.13 15.98 6.54 5.09 13.44 9.74 20.13 14.6 0.65 0.47 1.32 0.95 2.11 1.13 1.23 0.29 2.58-0.16 3.87-0.52 2.36-0.65 4.76-1 7.13-1.02 0.45-0.01 0.93 0.01 1.26 0.28 0.8 0.65 0.26 2.08-0.34 3.08-3.52 5.88-7.54 11.47-11.99 16.67-4.99 6.36-5.8-4.54-4.34-7.89 0.1-0.23 0.2-0.47 0.21-0.72 0.02-0.57-0.45-0.95-0.88-1.24q-10.17-7-20.35-14c-2.88-1.98-4.58-4.37-7.81-2.73-2.77 1.4-4.68 4.81-7.49 6.37-3.25 1.79-6.74 2.97-10.26 3.48-12.43 1.8-23.42-3.49-33.8-8.54-13.27-6.47-26.33-13.37-39.24-20.5-2.76 4.11-5.53 8.2-8.39 12.23-2.71 3.83-4.76 8-9.43 8.93-4.92 0.98-8.72-3.5-6.48-8.16 2.48-5.14 6.79-10.61 10.34-15.09 2.57-3.24 3.15-2.94 0.81-5.32-1.67-1.68-4.69-2.72-6.74-3.91-3.67 5.75-7.58 11.26-11.99 16.1-3.41 3.72-8.73-0.13-7.18-4.54 2.12-6.03 5.15-11.96 8.51-17.77q-7.99-4.79-15.89-9.71c-3.33 4.74-6.8 9.37-10.48 13.79q-0.11 0.24-0.22 0.48c-1.36 3.14-6.16 3.57-6.8 0.73-1.56-1.62-2.26-4.43-0.92-6.93 2.6-4.86 5.46-9.63 8.42-14.35-12.79-8.18-25.41-16.64-37.79-25.44-12.12-8.61-57.05-32.38-39.88-56.78 5.55-7.88 14.09-6.72 20.9-4.13 16.41 6.24 32.03 16.15 47.41 24.38q18.33 9.82 36.28 20.25c2.79-4.44 5.65-8.83 8.68-13.08-1.6-1.09-3.2-2.18-4.81-3.2q-19.15-12.18-38.59-23.89-38.18-22.99-77.44-44.12c-17.47-9.4-36.31-18.75-56.99-16.12-8.23 1.04-15.49 3.33-23.7 3.8q14.74-24.94 29.47-49.88c4.24-7.17 10.35-15.75 15.98-21.86zm241.91 211.68c-9.46-7.54-19.33-14.52-29.38-21.22-2.39 4.45-5.13 8.85-8.02 13.18q2.22 1.44 4.43 2.9c19.94 13.2 40.17 26.29 59.39 40.69 3.38-15.5-16.83-27.9-26.42-35.55zm-17.51 46.62c11.42 5.43 28.72 10.79 39.3-2.07-21.47-15.03-42.7-30.35-64.42-45.01-4.49 6.32-9.07 12.5-13.11 18.51q-2.17 3.22-4.32 6.46c13.97 7.82 28.13 15.25 42.55 22.11zm-52.21-51.54c-3.48 5.72-6.9 11.81-10.46 17.84 3.05 1.82 6.13 3.58 9.2 5.36q6.06-8.86 12.16-17.7c1.8-2.62 3.64-5.37 5.5-8.17q-5.27-3.47-10.6-6.87-2.89 4.77-5.8 9.54zm10.38-17.2q5.56 3.49 11.09 7.04c2.96-4.29 6.05-8.52 9.33-12.4q-6.36-4.11-12.77-8.14-3.7 6.82-7.65 13.5zm-31.44 28.62c3.31-5.27 6.73-10.44 9.84-15.5q3.58-5.83 7.22-11.61c-2.77-1.71-5.52-3.44-8.32-5.11q-3.45-2.05-6.92-4.07-2.8 4.33-5.53 8.59c-3.84 5.98-7.67 12.06-11.64 18.05q7.63 4.89 15.35 9.65zm6.55-43.76q7.67 4.56 15.29 9.22c2.85-4.36 5.77-8.67 8.82-12.89q-2.95-1.85-5.9-3.71-1.85-1.16-3.71-2.32c-1.4-0.45-2.48-0.83-2.78-0.99q-2.13-1.15-4.19-2.45c-2.33 4.45-4.87 8.83-7.53 13.14zm-14.99 1.46c-17.93-10.38-36.11-20.36-54.58-29.79-6.16-3.15-34.41-22.1-39.31-9.51-5.11 13.14 26.13 30.18 33.71 35.64 14.13 10.18 28.52 20.14 43.16 29.77 4.41-6.71 8.92-13.36 13.2-20.04q1.92-3.01 3.82-6.07z"/>
		</clipPath>
		<clipPath clipPathUnits="userSpaceOnUse" id="cp4">
			<path d="m393.06 1566.12q14.27 24.15 28.55 48.31c-7.95-0.46-14.99-2.68-22.95-3.69-20.03-2.54-38.29 6.51-55.2 15.61q-38.03 20.48-75 42.74-18.83 11.34-37.38 23.13c-1.56 1-3.1 2.05-4.65 3.1 2.93 4.12 5.7 8.38 8.4 12.67q17.38-10.1 35.14-19.61c14.9-7.97 30.02-17.57 45.92-23.61 6.59-2.51 14.86-3.63 20.23 4 16.63 23.63-26.88 46.65-38.62 54.99-11.99 8.52-24.21 16.72-36.6 24.64 2.87 4.57 5.64 9.19 8.16 13.9 1.3 2.42 0.62 5.14-0.9 6.71-0.61 2.75-5.26 2.33-6.58-0.71q-0.11-0.23-0.22-0.46c-3.56-4.28-6.92-8.76-10.14-13.36q-7.66 4.77-15.4 9.4c3.26 5.63 6.2 11.37 8.25 17.21 1.51 4.28-3.65 8-6.95 4.4-4.28-4.68-8.07-10.02-11.62-15.59-1.98 1.15-4.91 2.16-6.52 3.79-2.27 2.3-1.71 2.01 0.78 5.15 3.44 4.34 7.61 9.64 10.01 14.62 2.18 4.51-1.5 8.85-6.27 7.9-4.52-0.91-6.51-4.94-9.13-8.65-2.77-3.9-5.46-7.87-8.13-11.85-12.5 6.91-25.15 13.6-38.01 19.86-10.05 4.89-20.69 10.01-32.73 8.27-3.41-0.49-6.79-1.64-9.94-3.37-2.72-1.51-4.57-4.81-7.25-6.17-3.13-1.59-4.78 0.72-7.56 2.64q-9.86 6.78-19.72 13.56c-0.41 0.29-0.87 0.65-0.85 1.21 0.01 0.23 0.11 0.46 0.21 0.69 1.41 3.24 0.63 13.8-4.2 7.64-4.32-5.03-8.21-10.45-11.62-16.14-0.58-0.97-1.11-2.36-0.33-2.99 0.33-0.26 0.79-0.28 1.22-0.27 2.3 0.02 4.62 0.36 6.9 0.99 1.26 0.35 2.56 0.79 3.76 0.51 0.77-0.18 1.41-0.65 2.04-1.1 6.48-4.71 13.17-9.21 19.49-14.14 5.58-4.35 1.09-8.98 2.06-15.47 0.55-3.65 1.99-6.99 4.01-9.84 8.03-11.39 21.34-20.22 32.25-28.37 7.33-5.47 14.86-10.67 22.48-15.73q-0.77-1.75-1.44-3.52c-0.57-1.49-0.29-2.74 0.4-3.62-1.66 0.42-3.55-0.42-4.69-2.06-1.37-1.97-0.82-4.73 0.91-5.83 1.85-1.17 4.32-0.32 5.7 1.65 1.13 1.62 0.94 3.75-0.11 5.07 1.24-0.35 2.71-0.13 3.91 0.92 0.92 0.79 1.8 1.67 2.68 2.54q4.51-2.92 9.04-5.81 2.5-1.6 5-3.2-1.35-2.68-2.64-5.4c-0.43-0.91-0.54-1.7-0.42-2.36-2.15 0.43-4.54-0.68-6.01-2.77-1.82-2.61-1.08-6.28 1.21-7.72 2.45-1.55 5.72-0.43 7.55 2.18 1.3 1.86 1.28 4.25 0.34 6 1.44-0.1 3.05 0.44 4.09 1.72q1.51 1.88 2.98 3.79 8.45-5.4 16.89-10.82-1.14-2.59-2.11-5.22c-0.34-0.94-0.31-1.84-0.02-2.63-0.2-0.66-0.15-1.26 0.03-1.79-1.64 0.64-3.62-0.15-4.78-1.81-1.28-1.84-0.76-4.43 0.85-5.45 1.74-1.1 4.05-0.31 5.34 1.54 0.87 1.26 0.9 2.86 0.31 4.07 1.05-0.31 2.31-0.01 3.22 1.35q0.03 0.03 0.06 0.07 0.54 0.29 1.03 0.83 1.84 2.05 3.58 4.21c14.74-9.5 29.49-18.99 44.3-28.38q12.65-8.56 25.31-17.12c25.54-17.28 55.41-33.26 74.26-58.69 8.09-10.93 13.45-24.74 12.37-39.44 5.45 5.92 11.37 14.23 15.47 21.18zm-275.35 218.26c18.61-13.93 38.21-26.61 57.52-39.4q2.14-1.41 4.29-2.81c-2.8-4.19-5.45-8.45-7.77-12.77-9.74 6.5-19.3 13.25-28.46 20.56-9.28 7.41-28.86 19.42-25.58 34.42zm83.75-10.68q-2.08-3.14-4.18-6.26c-3.91-5.82-8.35-11.8-12.69-17.93-21.04 14.2-41.61 29.04-62.4 43.59 10.25 12.46 27 7.27 38.06 2.01 13.97-6.64 27.69-13.84 41.21-21.41zm3.74-37.75q-5.15 3.3-10.26 6.66c1.8 2.7 3.58 5.37 5.33 7.91q5.9 8.56 11.77 17.14c2.98-1.72 5.96-3.43 8.91-5.19-3.45-5.83-6.75-11.73-10.13-17.28q-2.82-4.62-5.62-9.24zm-11.84-20.49q-6.21 3.91-12.37 7.88c3.18 3.76 6.17 7.86 9.04 12.01q5.35-3.43 10.74-6.81-3.83-6.48-7.41-13.08zm52.72 31.44c-3.84-5.8-7.55-11.68-11.26-17.48q-2.66-4.12-5.37-8.31-3.36 1.95-6.7 3.94c-2.7 1.62-5.37 3.29-8.06 4.95q3.53 5.6 7 11.24c3.01 4.9 6.32 9.91 9.53 15.01q7.47-4.6 14.86-9.35zm-28.5-45.76q-1.99 1.26-4.06 2.38c-0.29 0.15-1.33 0.53-2.69 0.96q-1.8 1.12-3.59 2.25-2.86 1.79-5.72 3.59c2.96 4.09 5.79 8.26 8.55 12.48q7.37-4.51 14.81-8.93c-2.58-4.17-5.05-8.41-7.3-12.73zm25.51 20.02c4.15 6.48 8.52 12.91 12.78 19.41 14.18-9.32 28.12-18.97 41.81-28.83 7.34-5.29 37.6-21.79 32.64-34.51-4.74-12.2-32.1 6.15-38.07 9.2-17.89 9.14-35.49 18.8-52.86 28.85q1.84 2.97 3.7 5.88z"/>
		</clipPath>
	</defs>
	<style>
		.s0 { fill: none;stroke: #a200d4;stroke-miterlimit:10;stroke-width: 2.4 } 
		.s1 { fill: #02af48 } 
		.s2 { fill: #ffcf00 } 
		.s3 { fill: #fe0002 } 
		.s4 { fill: none;stroke: #49004b;stroke-miterlimit:10;stroke-width: 2.4 } 
		.s5 { fill: #f78e1b } 
		.s6 { mix-blend-mode: multiply;fill: #e4dce5 } 
		.s7 { fill: #49004b } 
		.s8 { fill: none;stroke: #ffffff;stroke-miterlimit:10;stroke-width: 1.6 } 
		.s9 { opacity: .46;fill: #ffffff } 
		.s10 { fill: #ff9a3e } 
		.s11 { opacity: .54;fill: #ffffff } 
		.s12 { fill: #e4dce5 } 
		.s13 { fill: #f9c00e } 
		.s14 { fill: #fcdf87 } 
		.s15 { fill: #ffffff } 
		.s16 { fill: #ffbfbb } 
		.s17 { fill: #fcaacd } 
		.s18 { fill: none;stroke: #02af48;stroke-linecap: round;stroke-miterlimit:10;stroke-width: 4 } 
	</style>
	<g id="objects">
		<g id="&lt;Clip Group&gt;" clip-path="url(#cp1)">
			<g id="&lt;Group&gt;" style="opacity: .36">
				<g id="&lt;Group&gt;">
					<path id="&lt;Path&gt;" class="s0" d="m427.23-0.12c-35.63 59.95-95.82 136.93-191.83 196.76-104.07 64.84-208.71 83.75-282.13 87.55"/>
				</g>
				<g id="&lt;Group&gt;">
					<g id="&lt;Group&gt;">
						<path id="&lt;Path&gt;" class="s1" d="m456.15 99.07c-6.71-13.97-13.75-27.91-20.84-41.57-7.13-13.7-14.5-27.29-21.96-40.67-11.61 18.67-24.2 36.59-37.73 53.68q39.52 16.06 80.53 28.56z"/>
					</g>
					<g id="&lt;Group&gt;">
						<path id="&lt;Path&gt;" class="s2" d="m401.89 166.07q-8.01-21.79-16.57-43.07-8.69-21.41-17.91-42.31c-13.87 16.78-28.72 32.64-44.39 47.58q9.61 5.1 19.37 10.05c6.51 3.3 13.07 6.54 19.61 9.66 13.1 6.25 26.44 12.33 39.89 18.09z"/>
					</g>
					<g id="&lt;Group&gt;">
						<path id="&lt;Path&gt;" class="s3" d="m338.79 224.05q-5.72-22.25-12.1-44.05-1.61-5.44-3.23-10.88-1.68-5.45-3.38-10.89-3.41-10.88-6.98-21.63-3 2.72-6.02 5.43-1.51 1.36-3.02 2.71-1.54 1.31-3.09 2.62-6.19 5.23-12.42 10.41-6.36 5.01-12.76 9.97-1.6 1.24-3.2 2.48-1.64 1.19-3.27 2.38-3.28 2.37-6.57 4.74 9.23 6.17 18.62 12.22 4.71 3 9.43 6 4.71 2.93 9.44 5.84 18.96 11.62 38.55 22.65z"/>
					</g>
					<path id="&lt;Path&gt;" class="s1" d="m210.44 209.77q3.54-1.97 7.07-3.95c2.34-1.35 4.64-2.77 6.95-4.16 4.61-2.81 9.25-5.57 13.8-8.47q6.76-4.45 13.49-8.94 4.9 21.76 9.08 43.91c2.75 14.7 5.17 29.41 7.39 44.3-6.2-4.37-12.31-8.74-18.42-13.23q-9.18-6.77-18.18-13.65c-12.04-9.22-24.65-18.63-36.33-28.29 4.85-2.4 10.41-4.93 15.15-7.52z"/>
					<g id="&lt;Group&gt;">
						<path id="&lt;Path&gt;" class="s3" d="m190.47 310.99q-0.44-11.04-1.09-22.01c-0.43-7.31-0.99-14.72-1.59-22.04-1.22-14.7-2.64-29.16-4.44-43.76-19.43 9.49-39.45 18.49-59.92 25.76 2.7 2.69 5.43 4.82 8.14 7.51q4.08 3.98 8.17 7.95 8.21 7.93 16.59 15.78c5.59 5.22 11.26 10.48 16.93 15.58q8.52 7.66 17.21 15.23z"/>
					</g>
					<g id="&lt;Group&gt;">
						<path id="&lt;Path&gt;" class="s2" d="m109.39 338.8c0.97-14.44 1.69-28.7 2.03-43.14 0.33-14.43 0.4-28.73 0.15-43.08-20.69 6.76-41.65 13.03-63.15 17.44 19.53 23.67 39.72 46.18 60.97 68.78z"/>
					</g>
					<g id="&lt;Group&gt;">
						<path id="&lt;Path&gt;" class="s1" d="m25.59 356.74c2.53-13.85 4.74-27.69 6.6-41.66q1.4-10.44 2.57-20.86c0.77-6.98 2.15-15.28 2.77-22.26-21.63 3.95-44.29 8-66.46 9.57 17.29 25.38 35.47 50.56 54.52 75.21z"/>
					</g>
				</g>
			</g>
			<g id="&lt;Group&gt;">
				<g id="&lt;Group&gt;">
					<path id="&lt;Path&gt;" class="s4" d="m541.09 3.6c-57.74 40.91-145.28 87.48-258.97 103.41-123.22 17.23-228.05-8.35-297.7-35.08"/>
				</g>
				<g id="&lt;Group&gt;">
					<g id="&lt;Group&gt;">
						<path id="&lt;Path&gt;" class="s1" d="m527.03 107.49c-0.46-15.71-1.25-31.54-2.19-47.13-0.97-15.64-2.2-31.29-3.6-46.76-18.46 12.52-37.53 23.95-57.11 34.23q30.03 31.18 62.9 59.66z"/>
					</g>
					<g id="&lt;Group&gt;">
						<path id="&lt;Path&gt;" class="s5" d="m449.11 147.27q1.55-23.51 2.38-46.77 0.76-23.44 0.83-46.62c-19.78 9.84-40.09 18.44-60.77 25.83q6.81 8.69 13.82 17.3c4.68 5.74 9.42 11.46 14.2 17.04 9.58 11.2 19.44 22.33 29.54 33.22z"/>
					</g>
					<g id="&lt;Group&gt;">
						<path id="&lt;Path&gt;" class="s3" d="m366.71 175.03q3.86-22.99 6.93-45.84 0.74-5.7 1.48-11.41 0.69-5.75 1.36-11.5 1.32-11.49 2.44-22.93-3.91 1.29-7.82 2.56-1.96 0.63-3.92 1.26-1.97 0.58-3.94 1.16-7.9 2.3-15.81 4.54-7.96 2.02-15.94 3.98-2 0.49-3.99 0.98-2.01 0.43-4.02 0.86-4.02 0.85-8.04 1.69 6.02 9.53 12.23 19 3.13 4.73 6.27 9.45 3.17 4.66 6.35 9.31 12.79 18.59 26.42 36.89z"/>
					</g>
					<path id="&lt;Path&gt;" class="s1" d="m253.57 108.9q4.09-0.37 8.19-0.75c2.72-0.29 5.43-0.66 8.15-1 5.43-0.71 10.87-1.35 16.29-2.17q8.1-1.33 16.19-2.73-4.43 22.2-9.67 44.46c-3.51 14.77-7.33 29.41-11.41 44.13-3.94-6.61-7.81-13.18-11.62-19.86q-5.73-10.06-11.24-20.15c-7.36-13.51-15.18-27.43-22.02-41.21 5.48-0.22 11.68-0.28 17.14-0.72z"/>
					<g id="&lt;Group&gt;">
						<path id="&lt;Path&gt;" class="s3" d="m193.34 194.53q4.14-10.42 8.06-20.86c2.61-6.95 5.14-14.06 7.61-21.09 4.92-14.13 9.57-28.13 13.91-42.42-21.93 0.8-44.2 0.89-66.18-0.8 1.39 3.61 3.05 6.71 4.46 10.32q2.14 5.38 4.29 10.74 4.35 10.74 8.89 21.48c3.03 7.13 6.12 14.35 9.28 21.41q4.74 10.62 9.68 21.22z"/>
					</g>
					<g id="&lt;Group&gt;">
						<path id="&lt;Path&gt;" class="s2" d="m106.69 186.91c6.85-13 13.4-25.92 19.66-39.17 6.26-13.25 12.22-26.48 17.89-39.89-21.97-2.25-43.99-5.08-65.74-9.84 8.35 29.99 17.8 59.18 28.19 88.9z"/>
					</g>
					<g id="&lt;Group&gt;">
						<path id="&lt;Path&gt;" class="s1" d="m21.59 169.01c8.05-11.81 15.8-23.73 23.28-35.91q5.61-9.11 10.99-18.28c3.59-6.16 8.29-13.29 11.74-19.51-21.69-5.25-44.37-10.83-65.57-18.51 5.57 30.66 12.05 61.5 19.56 92.21z"/>
					</g>
				</g>
			</g>
			<g id="&lt;Group&gt;" style="opacity: .36">
				<g id="&lt;Group&gt;">
					<path id="&lt;Path&gt;" class="s0" d="m990.65-0.12c44.48 53 115.74 118.74 219.33 161.97 112.28 46.83 217.77 48.6 290.27 40.57"/>
				</g>
				<g id="&lt;Group&gt;">
					<g id="&lt;Group&gt;">
						<path id="&lt;Path&gt;" class="s1" d="m978.21 101.63c4.33-14.75 8.99-29.53 13.75-44.04 4.79-14.55 9.83-29.05 14.99-43.33 14.35 16.41 29.56 31.95 45.54 46.52q-36.13 22.05-74.28 40.85z"/>
					</g>
					<g id="&lt;Group&gt;">
						<path id="&lt;Path&gt;" class="s2" d="m1042.05 158.56q4.36-22.62 9.34-44.83 5.09-22.36 10.77-44.3c16.27 14.21 33.34 27.37 51.08 39.49q-8.6 6.53-17.36 12.94c-5.85 4.27-11.75 8.5-17.66 12.59-11.83 8.23-23.91 16.31-36.17 24.11z"/>
					</g>
					<g id="&lt;Group&gt;">
						<path id="&lt;Path&gt;" class="s3" d="m1113.12 205.23q2.04-22.7 4.8-45.07 0.71-5.58 1.43-11.17 0.77-5.6 1.56-11.21 1.6-11.19 3.37-22.29 3.38 2.18 6.77 4.36 1.69 1.08 3.39 2.16 1.72 1.04 3.44 2.08 6.9 4.13 13.83 8.2 7.03 3.89 14.09 7.72 1.77 0.96 3.53 1.91 1.79 0.91 3.59 1.81 3.59 1.8 7.18 3.59-8.05 7.53-16.27 14.95-4.13 3.7-8.27 7.38-4.15 3.62-8.31 7.24-16.71 14.41-34.13 28.34z"/>
					</g>
					<path id="&lt;Path&gt;" class="s1" d="m1236.51 170.71q-3.78-1.36-7.55-2.74c-2.51-0.94-4.98-1.97-7.47-2.96-4.96-2.02-9.95-3.98-14.87-6.09q-7.33-3.27-14.64-6.59-1.31 22.09-1.86 44.45c-0.34 14.83-0.36 29.62-0.14 44.56 5.36-5.27 10.65-10.53 15.91-15.9q7.9-8.09 15.62-16.28c10.31-10.95 21.16-22.18 31.04-33.51-5.13-1.58-10.98-3.16-16.04-4.94z"/>
					<g id="&lt;Group&gt;">
						<path id="&lt;Path&gt;" class="s3" d="m1272.27 266.63q-1.33-10.88-2.45-21.73c-0.75-7.22-1.39-14.57-1.98-21.83-1.15-14.59-2.08-28.98-2.65-43.57 20.55 6.18 41.59 11.79 62.8 15.64-2.22 3.07-4.55 5.59-6.78 8.66q-3.35 4.55-6.72 9.09-6.77 9.08-13.72 18.11c-4.64 6-9.35 12.06-14.09 17.96q-7.11 8.87-14.41 17.67z"/>
					</g>
					<g id="&lt;Group&gt;">
						<path id="&lt;Path&gt;" class="s2" d="m1356.11 280.89c-3.26-13.99-6.25-27.84-8.88-41.92-2.64-14.08-5-28.07-7.04-42.16 21.34 3.31 42.86 6.09 64.62 6.97-15.34 26.3-31.5 51.57-48.7 77.11z"/>
					</g>
					<g id="&lt;Group&gt;">
						<path id="&lt;Path&gt;" class="s1" d="m1441.05 285.04c-4.7-13.16-9.08-26.36-13.13-39.73q-3.05-10-5.86-20.01c-1.88-6.72-4.56-14.63-6.28-21.36 21.82 0.41 44.65 0.75 66.61-1.27-12.87 27.63-26.64 55.19-41.34 82.37z"/>
					</g>
				</g>
			</g>
			<g id="&lt;Group&gt;">
				<g id="&lt;Group&gt;">
					<path id="&lt;Path&gt;" class="s4" d="m947.9 16.92c58.05 37.65 145.45 79.63 257.16 90.61 121.07 11.88 222.45-17.33 289.42-46.25"/>
				</g>
				<g id="&lt;Group&gt;">
					<g id="&lt;Group&gt;">
						<path id="&lt;Path&gt;" class="s1" d="m965.81 117.85c-0.18-15.36-0.04-30.86 0.25-46.13 0.31-15.32 0.89-30.65 1.64-45.83 18.53 11.49 37.62 21.89 57.17 31.15q-28.09 31.66-59.06 60.81z"/>
					</g>
					<g id="&lt;Group&gt;">
						<path id="&lt;Path&gt;" class="s5" d="m1043.54 153.58q-2.46-22.91-4.21-45.6-1.69-22.86-2.68-45.51c19.71 8.82 39.9 16.4 60.41 22.79q-6.31 8.77-12.81 17.46c-4.34 5.8-8.75 11.57-13.19 17.22-8.9 11.33-18.09 22.59-27.52 33.64z"/>
					</g>
					<g id="&lt;Group&gt;">
						<path id="&lt;Path&gt;" class="s3" d="m1125.16 177.39q-4.7-22.31-8.61-44.51-0.97-5.54-1.91-11.09-0.91-5.59-1.8-11.18-1.74-11.17-3.3-22.3 3.87 1.1 7.74 2.18 1.94 0.54 3.88 1.08 1.95 0.49 3.9 0.98 7.8 1.92 15.62 3.79 7.87 1.66 15.74 3.25 1.97 0.4 3.94 0.8 1.98 0.34 3.96 0.67 3.96 0.68 7.92 1.33-5.49 9.56-11.19 19.06-2.86 4.74-5.74 9.48-2.9 4.68-5.83 9.35-11.75 18.68-24.32 37.11z"/>
					</g>
					<path id="&lt;Path&gt;" class="s1" d="m1233.02 108.23q-4.01-0.2-8.02-0.41c-2.68-0.17-5.34-0.43-8.01-0.64-5.33-0.48-10.67-0.89-16-1.47q-7.97-0.97-15.93-2.01 5.22 21.5 11.24 43.05c4.03 14.28 8.34 28.42 12.92 42.64 3.59-6.61 7.1-13.18 10.56-19.86q5.19-10.06 10.17-20.14c6.64-13.49 13.73-27.41 19.85-41.14-5.36 0-11.42 0.19-16.78-0.02z"/>
					<g id="&lt;Group&gt;">
						<path id="&lt;Path&gt;" class="s3" d="m1295.32 189.46q-4.47-10.01-8.72-20.06c-2.83-6.68-5.59-13.52-8.28-20.29-5.38-13.61-10.48-27.1-15.3-40.88 21.45-0.11 43.21-0.91 64.62-3.45-1.21 3.59-2.71 6.68-3.94 10.27q-1.87 5.33-3.76 10.66-3.81 10.67-7.82 21.34c-2.67 7.09-5.4 14.26-8.2 21.29q-4.2 10.57-8.6 21.12z"/>
					</g>
					<g id="&lt;Group&gt;">
						<path id="&lt;Path&gt;" class="s2" d="m1379.66 178.53c-7.22-12.42-14.14-24.79-20.78-37.48-6.65-12.68-13.01-25.37-19.09-38.24 21.38-3.09 42.77-6.74 63.83-12.27-6.95 29.64-15 58.54-23.96 87.99z"/>
					</g>
					<g id="&lt;Group&gt;">
						<path id="&lt;Path&gt;" class="s1" d="m1462.08 157.62c-8.35-11.21-16.4-22.55-24.2-34.15q-5.84-8.66-11.46-17.41c-3.76-5.88-8.64-12.65-12.26-18.59 20.98-6 42.91-12.36 63.31-20.72-4.2 30.18-9.3 60.57-15.39 90.87z"/>
					</g>
				</g>
			</g>
		</g>
		<g id="&lt;Group&gt;">
			<path id="&lt;Path&gt;" class="s5" d="m211.7 1406.28c-1.59-0.13-3.16-0.19-4.72-0.1-3.97 0.25-7.6 1.32-11.6 0.45-9.97-2.15-16.48-10.85-21.58-19.03-11.02-17.72-23.19-34.52-34.34-52.27-11.32-18.03-23.07-36.08-33.17-54.84-6.8 5.88-11.57 7.17-18.73 11.52 1.65 3.51 5.07 9.21 6.39 11.48q7.32 12.57 14.65 25.13c9.52 16.35 19.24 32.61 28.58 49.07 4.67 8.23 10.09 16.01 15.02 24.1 3.82 6.26 10.55 14.01 10.45 21.8-0.14 9.75-8.75 19.4-11.63 28.51-2.82 8.93-2.46 18.83 0.99 27.54 3.46 8.7 9.99 16.15 18.17 20.72 2.35 1.31 4.85 2.41 6.96 4.08 9.25 7.29 4.32 19.2 3.23 29-1.14 10.38-0.95 21.06 2.07 31.06 3.01 10 9.05 19.32 17.83 24.99 5.25 3.38 11.3 5.48 17.4 6.68 6.31 1.24 12.02 1.03 18.42 0.3 13.24-1.52 26.35-4.78 38.51-10.3 6.76-3.08 13.22-6.85 19.13-11.35 9.73-7.39 18.43-17.12 22.7-28.73 3.92-10.65 3.79-22.36 0.76-33.21-2.14-7.67-5.63-14.92-9.97-21.57-5.13-7.86-12.29-14.71-21.17-17.72-5.37-1.82-11.1-2.17-16.62-3.43-6.99-1.59-14.14-4.37-16.19-12-1.2-4.44-0.24-9.13-0.13-13.73 0.44-18.96-15.07-36.42-33.91-37.45-2.49-0.13-5-0.5-7.5-0.7z"/>
			<g id="&lt;Clip Group&gt;" clip-path="url(#cp2)">
				<g id="&lt;Group&gt;">
					<path id="&lt;Path&gt;" class="s6" d="m152.98 1421.45c0.08 0.13 0.12 0.14 0.11 0.09q-0.03-0.04-0.07-0.08-0.02-0.01-0.04-0.01z"/>
					<path id="&lt;Compound Path&gt;" fill-rule="evenodd" class="s6" d="m252.96 1599.52q-0.49-0.01-0.98-0.03c-0.9-0.03-1.75-0.29-2.47-0.73 0.06 1.77-0.94 3.78-2.74 4.14-2.64 0.53-4.54 0.17-7.03-0.73-1.84-0.66-3.47-0.34-5.39-0.06-4.88 0.71-9.57-0.48-14.15-2.12-7.98-2.86-15.5-7.05-21.63-12.97-2.37-2.29-4.71-4.86-6.77-7.65 0.59 1.53 1.18 2.98 1.76 4.15 0.84 1.7 1.81 3.39 3 4.88 0.03 0.02 0.49 0.53 0.6 0.64 0.09 0.08 0.42 0.34 0.57 0.47 0.11-0.07 0.16-0.05 0.16 0.01 5.16-0.3 5.57 7.77 0.35 8.21-5.22 0.45-8.81-4.58-10.99-8.62-1.93-3.57-3.28-7.31-4.76-11.07-2.5-6.37-5.81-12.28-6.88-19.12-0.52-3.29-1.42-6.45-2.03-9.72-0.67-3.63-0.69-7.34-0.83-11.02q-0.17-4.76-0.2-9.52c-0.02-2.15-0.04-4.33-0.43-6.44-1.5-0.86-2.36-2.79-2-4.46 0.28-1.33 1.17-2.29 2.29-2.8-0.6-0.56-1.01-1.36-1.1-2.4q-0.02-0.01-0.04-0.02c-0.44-0.16-0.93-0.65-1.5-1.06-1.16-0.85-2.02-1.95-2.89-3.09q-1.38-1.79-2.79-3.56c-0.95 0.61-2.15 0.87-3.18 0.65-2.34-0.49-3.4-2.67-3.17-4.88-0.04 0.43-0.06-0.5-0.07-0.53-0.09-0.53-0.31-1.06-0.51-1.56-0.37-0.94-0.87-1.81-1.39-2.68-1.15-1.9-2.38-3.77-3.61-5.62-3.05-4.65-6.75-8.51-8.64-13.85-1.53-4.32-2.6-8.96-3.07-13.52-0.39-3.86-0.55-9.02 2.46-11.96 0.71-0.68 1.58-1.11 2.48-1.27q0.2-2.25 0.75-4.53c1-4.03 0.62-9.38 3.84-12.49 0.76-0.73 1.71-1.19 2.69-1.31q0.41-0.93 0.96-1.76c0.2-1.87 0.3-3.54 0.06-5.78q-0.05-0.46-0.12-0.91c-0.03-0.09-0.06-0.2-0.07-0.26q-0.14-0.41-0.28-0.82 0-0.01 0-0.02-0.02-0.02-0.03-0.05-0.02-0.03-0.05-0.07-0.04-0.01-0.03-0.03-0.01-0.02-0.02-0.04-0.01-0.03-0.05-0.08-0.01 0-0.02 0-0.02-0.04-0.04-0.07-0.03-0.02-0.06-0.03 0.03 0.05 0.06 0.09-0.11 0-0.21-0.01c-5.21-0.96-3.48-9.01 1.73-8.05 6.57 1.22 7.6 7.97 7.44 13.72 1.76 1.77 1.96 5.12-0.58 6.53q-0.34 2.51-0.64 5.02-0.04 0.35-0.07 0.7 0 0.03 0 0.06c0.05 1.13 0.01 2.27 0.04 3.41q0.09 4.04 0.39 8.07c1.22 16.07 6.01 33.67 19.66 43.62 2.98 2.17 6.17 4.39 8.22 7.53 2.6 3.96 2.33 8.84 1.51 13.31-0.42 2.35-0.89 4.39-0.59 6.78 0.28 2.33 0.32 4.53-0.1 6.86-0.4 2.19-1.04 4.24-0.84 6.49 0.18 1.96 0.83 3.84 1.32 5.74 1.03 3.96 0.92 8 1.76 11.98 0.83 3.97 2.17 7.88 3.91 11.55 1.52 3.21 3.46 6.42 5.86 9.04 2.68 2.92 5.96 4.74 9.56 6.3 3.97 1.72 7.91 3.54 11.9 5.19 4.14 1.7 8.42 2.27 12.83 2.87 6.57 0.88 15.27-0.72 20.07 4.98 1.94 2.31-0.24 6.48-3.19 6.38zm-99.99-178.14q-0.08-0.1-0.14-0.2 0.05 0.1 0.09 0.17 0.03 0.01 0.05 0.03zm0.14 0.07q0.06 0.04 0.09 0.07 0 0 0.01 0c0.24-0.09 0.1-0.07-0.1-0.07zm44.78 168.08q0.01 0.04 0 0.08c0.12 0.04 0.08-0.04 0-0.08zm-0.15-0.02q0.01 0.01 0.01 0.01 0.01 0 0.01 0 0.06 0 0.13 0-0.07-0.03-0.15-0.01zm-18.36-72.06q0.03-0.3 0.07-0.59c0.18-1.19 0.07-2.24-0.28-3.26-0.32 0.74-0.85 1.32-1.48 1.72 0.78 0.51 1.4 1.29 1.69 2.13zm18.18 72.09q-0.05 0 0 0z"/>
				</g>
			</g>
			<path id="&lt;Compound Path&gt;" fill-rule="evenodd" class="s1" d="m89.58 1248.6c7.58 12.88 15.36 25.64 22.46 38.77 0.7 1.3 0.18 2.95-1.14 3.62q-8.74 4.39-17.6 8.53c-1.21 0.56-2.65 0.12-3.35-1.01-7.75-12.64-15.95-25.02-23.41-37.84 0.5-3.33 0.42-6.69-0.51-9.9 1.85-3.53 8.63-7.03 12.24-8.3 4.4 3.22 6.3 6.55 11.31 6.13zm2.1 31.63c-4.42-6.03-9.82-14.14-14.04-20.32-1.67-2.44-5.14 0.59-3.49 3.01 4.22 6.17 9.62 14.28 14.04 20.32 1.75 2.39 5.23-0.63 3.49-3.01zm-8.94-23.59c4.53 7.2 7.71 15.13 12.24 22.32 1.56 2.49 5.71 0.5 4.14-2-4.53-7.2-7.71-15.13-12.24-22.32-1.56-2.49-5.71-0.5-4.14 2z"/>
			<path id="&lt;Compound Path&gt;" class="s7" d="m208.68 1449.44c-12.29-1.62-22.74 9.02-19.71 20.39 0.65 7.84 5.29 15.15 12.08 18.66 9.26 4.79 23.91 0.21 27.1-11.44 3.33-12.14-7.98-26.08-19.47-27.61z"/>
			<path id="&lt;Path&gt;" class="s8" d="m79.98 1282.59l9.73 6.9 147.93 253.23"/>
			<path id="&lt;Path&gt;" class="s8" d="m239.7 1534.56l-147.22-249.54-21.46-16.84"/>
			<path id="&lt;Path&gt;" class="s8" d="m94.21 1256.42l2.49 26.92 148.33 249.47"/>
			<path id="&lt;Path&gt;" class="s8" d="m103.71 1272.55l-1 10.77 150.56 247.58"/>
			<path id="&lt;Path&gt;" class="s1" d="m96.59 1252.97q-0.33 0.38-0.45 0.86-0.4 0.62-0.38 1.41-1.54 0.64-3.08 1.29c-0.69 0.29-0.81 0.92-0.61 1.46-0.12 0.13-0.26 0.24-0.37 0.39-0.68 0.98 0.53 2.49 1.61 1.83 0.33-0.19 0.54-0.39 0.71-0.62 0.62-0.61 1.7-0.73 2.43-1.17q0.48-0.31 0.83-0.71c0.87 0.55 1.94 0.75 2.9 0.26 4.13-2.11-1.06-7.75-3.59-5z"/>
			<path id="&lt;Path&gt;" class="s1" d="m106.87 1268.39c-0.55 0.33-0.86 0.82-1.01 1.36q-0.39 0.68-0.33 1.45-1.86 0.79-3.53 1.93c-0.6 0.41-0.53 1.21-0.12 1.72-0.2 0.71 0.42 1.52 1.13 1.53q0.04 0 0.07 0c0.57 0.01 1.13-0.36 1.28-0.92 0.18-0.14 1.09-0.79 1.25-0.93q0.54-0.47 1.09-0.94c0.77 0.66 1.81 0.9 2.84 0.26 2.66-1.67 0.27-7.27-2.67-5.46z"/>
			<path id="&lt;Path&gt;" class="s1" d="m75.3 1267.56l-0.46 0.01c-0.42 0-0.73 0.17-0.95 0.42q-0.12 0.05-0.24 0.09c-0.35-0.65-1.21-1.05-1.94-0.43q-0.9 0.74-1.89 1.34-0.37-0.2-0.76-0.28c-0.31-0.19-0.7-0.25-1.13-0.01-0.43 0.24-0.73 0.56-0.96 0.9q-0.02 0.03-0.05 0.06c-0.91 1.45-0.3 3.56 1.1 4.71 2.02 1.67 4.65-0.17 3.96-2.64q-0.07-0.21-0.17-0.44c1.36-0.31 2.7-0.71 3.97-1.33 1.08-0.52 0.82-2.41-0.48-2.4z"/>
			<path id="&lt;Path&gt;" class="s1" d="m82.72 1280.91c-1.43 0.47-2.72 1.12-3.98 1.9-0.72-0.35-1.54-0.44-2.19-0.16-0.38 0.08-0.74 0.3-0.92 0.78-0.73 1.96 0.18 4.5 2.25 5.24 2.13 0.77 2.81-1.17 2.65-2.95 1.31-0.16 2.56-0.65 3.62-1.59 0.58-0.51 0.49-1.4-0.01-1.88 0.1-0.81-0.45-1.66-1.42-1.34z"/>
			<path id="&lt;Path&gt;" class="s7" d="m262 1535.82c-0.49-0.87-6.64-9.95-6.64-9.95l-24.74 13.97 6.5 10.02z"/>
			<path id="&lt;Path&gt;" class="s9" d="m223.96 1415.27c-0.28-0.71-0.79-1.47-1.53-1.76q-3.35-1.34-6.71-2.68c-0.79-0.31-1.56-0.45-2.39-0.17-0.7 0.24-1.44 0.83-1.76 1.52-0.33 0.74-0.47 1.61-0.17 2.39 0.28 0.71 0.79 1.47 1.52 1.76q3.36 1.34 6.72 2.68c0.78 0.31 1.56 0.45 2.39 0.17 0.7-0.24 1.44-0.83 1.75-1.52 0.34-0.74 0.48-1.61 0.18-2.39z"/>
			<path id="&lt;Path&gt;" class="s9" d="m237.95 1424.42c-0.71-1.11-1.58-2.14-2.5-3.08-0.94-0.95-2.01-1.73-3.12-2.46q-0.55-0.31-1.17-0.3-0.62-0.1-1.22 0.12c-0.7 0.24-1.45 0.84-1.76 1.53-0.34 0.73-0.48 1.61-0.17 2.39q0.17 0.36 0.35 0.71 0.34 0.49 0.83 0.81 1.37 0.97 2.51 2.21 0.6 0.71 1.11 1.49c0.41 0.65 1.18 1.15 1.92 1.31q0.63 0.15 1.23-0.02 0.62-0.06 1.13-0.43c0.63-0.46 1.17-1.13 1.31-1.92 0.14-0.83 0.01-1.64-0.45-2.36z"/>
			<path id="&lt;Path&gt;" class="s9" d="m308.62 1505.3c-6.33-19.96-26.33-34.08-47.22-33.59-3.97 0.1-3.61 6.26 0.36 6.16 18.2-0.43 35.52 12.1 41.02 29.41 1.2 3.79 7.04 1.81 5.84-1.98z"/>
		</g>
		<g id="&lt;Group&gt;">
			<path id="&lt;Compound Path&gt;" fill-rule="evenodd" class="s10" d="m1082.35 1535.77c-1.12 15.17 4.41 29.43 12.77 40.71 19.47 26.26 50.31 42.77 76.68 60.61q13.06 8.83 26.13 17.67c15.29 9.7 30.53 19.5 45.74 29.3q1.79-2.22 3.69-4.35 0.51-0.55 1.07-0.85 0.03-0.04 0.06-0.07c0.95-1.4 2.24-1.71 3.32-1.39-0.6-1.26-0.58-2.91 0.33-4.2 1.33-1.91 3.72-2.73 5.51-1.6 1.67 1.06 2.2 3.73 0.87 5.63-1.19 1.71-3.23 2.53-4.93 1.87 0.19 0.55 0.24 1.17 0.03 1.85 0.3 0.81 0.34 1.74-0.02 2.71q-1 2.72-2.17 5.39 8.71 5.6 17.43 11.18 1.52-1.97 3.08-3.91c1.08-1.33 2.74-1.89 4.22-1.79-0.97-1.8-0.99-4.27 0.36-6.19 1.88-2.7 5.26-3.86 7.79-2.25 2.37 1.49 3.12 5.27 1.24 7.97-1.51 2.16-3.97 3.31-6.2 2.86 0.12 0.68 0.02 1.5-0.43 2.44q-1.33 2.81-2.73 5.57 2.58 1.66 5.17 3.31 4.67 2.98 9.33 6c0.91-0.9 1.82-1.81 2.76-2.63 1.25-1.09 2.76-1.31 4.04-0.94-1.08-1.37-1.27-3.57-0.11-5.24 1.42-2.04 3.97-2.91 5.89-1.7 1.78 1.13 2.35 3.98 0.94 6.02-1.18 1.68-3.13 2.55-4.85 2.12 0.72 0.91 1 2.2 0.42 3.74q-0.7 1.82-1.49 3.63c7.87 5.23 15.64 10.59 23.21 16.25 11.27 8.41 25.01 17.53 33.3 29.28 2.08 2.95 3.57 6.4 4.13 10.16 1.01 6.71-3.63 11.49 2.13 15.98 6.54 5.09 13.44 9.74 20.13 14.6 0.65 0.47 1.32 0.95 2.11 1.13 1.23 0.29 2.58-0.16 3.87-0.52 2.36-0.65 4.76-1 7.13-1.02 0.45-0.01 0.93 0.01 1.26 0.28 0.8 0.65 0.26 2.08-0.34 3.08-3.52 5.88-7.54 11.47-11.99 16.67-4.99 6.36-5.8-4.54-4.34-7.89 0.1-0.23 0.2-0.47 0.21-0.72 0.02-0.57-0.45-0.95-0.88-1.24q-10.17-7-20.35-14c-2.88-1.98-4.58-4.37-7.81-2.73-2.77 1.4-4.68 4.81-7.49 6.37-3.25 1.79-6.74 2.97-10.26 3.48-12.43 1.8-23.42-3.49-33.8-8.54-13.27-6.47-26.33-13.37-39.24-20.5-2.76 4.11-5.53 8.2-8.39 12.23-2.71 3.83-4.76 8-9.43 8.93-4.92 0.98-8.72-3.5-6.48-8.16 2.48-5.14 6.79-10.61 10.34-15.09 2.57-3.24 3.15-2.94 0.81-5.32-1.67-1.68-4.69-2.72-6.74-3.91-3.67 5.75-7.58 11.26-11.99 16.1-3.41 3.72-8.73-0.13-7.18-4.54 2.12-6.03 5.15-11.96 8.51-17.77q-7.99-4.79-15.89-9.71c-3.33 4.74-6.8 9.37-10.48 13.79q-0.11 0.24-0.22 0.48c-1.36 3.14-6.16 3.57-6.8 0.73-1.56-1.62-2.26-4.43-0.92-6.93 2.6-4.86 5.46-9.63 8.42-14.35-12.79-8.18-25.41-16.64-37.79-25.44-12.12-8.61-57.05-32.38-39.88-56.78 5.55-7.88 14.09-6.72 20.9-4.13 16.41 6.24 32.03 16.15 47.41 24.38q18.33 9.82 36.28 20.25c2.79-4.44 5.65-8.83 8.68-13.08-1.6-1.09-3.2-2.18-4.81-3.2q-19.15-12.18-38.59-23.89-38.18-22.99-77.44-44.12c-17.47-9.4-36.31-18.75-56.99-16.12-8.23 1.04-15.49 3.33-23.7 3.8q14.74-24.94 29.47-49.88c4.24-7.17 10.35-15.75 15.98-21.86zm241.91 211.68c-9.46-7.54-19.33-14.52-29.38-21.22-2.39 4.45-5.13 8.85-8.02 13.18q2.22 1.44 4.43 2.9c19.94 13.2 40.17 26.29 59.39 40.69 3.38-15.5-16.83-27.9-26.42-35.55zm-17.51 46.62c11.42 5.43 28.72 10.79 39.3-2.07-21.47-15.03-42.7-30.35-64.42-45.01-4.49 6.32-9.07 12.5-13.11 18.51q-2.17 3.22-4.32 6.46c13.97 7.82 28.13 15.25 42.55 22.11zm-52.21-51.54c-3.48 5.72-6.9 11.81-10.46 17.84 3.05 1.82 6.13 3.58 9.2 5.36q6.06-8.86 12.16-17.7c1.8-2.62 3.64-5.37 5.5-8.17q-5.27-3.47-10.6-6.87-2.89 4.77-5.8 9.54zm10.38-17.2q5.56 3.49 11.09 7.04c2.96-4.29 6.05-8.52 9.33-12.4q-6.36-4.11-12.77-8.14-3.7 6.82-7.65 13.5zm-31.44 28.62c3.31-5.27 6.73-10.44 9.84-15.5q3.58-5.83 7.22-11.61c-2.77-1.71-5.52-3.44-8.32-5.11q-3.45-2.05-6.92-4.07-2.8 4.33-5.53 8.59c-3.84 5.98-7.67 12.06-11.64 18.05q7.63 4.89 15.35 9.65zm6.55-43.76q7.67 4.56 15.29 9.22c2.85-4.36 5.77-8.67 8.82-12.89q-2.95-1.85-5.9-3.71-1.85-1.16-3.71-2.32c-1.4-0.45-2.48-0.83-2.78-0.99q-2.13-1.15-4.19-2.45c-2.33 4.45-4.87 8.83-7.53 13.14zm-14.99 1.46c-17.93-10.38-36.11-20.36-54.58-29.79-6.16-3.15-34.41-22.1-39.31-9.51-5.11 13.14 26.13 30.18 33.71 35.64 14.13 10.18 28.52 20.14 43.16 29.77 4.41-6.71 8.92-13.36 13.2-20.04q1.92-3.01 3.82-6.07z"/>
			<g id="&lt;Clip Group&gt;" clip-path="url(#cp3)">
				<path id="&lt;Path&gt;" class="s11" d="m1066.38 1562.52q-5.54 9.74-11.09 19.48c-1.43 2.51 2.45 4.78 3.88 2.26q5.54-9.73 11.09-19.47c1.43-2.52-2.45-4.78-3.88-2.27z"/>
				<path id="&lt;Path&gt;" class="s11" d="m1077.68 1551.41c-0.27-0.47-0.81-0.91-1.34-1.03-0.58-0.13-1.22-0.1-1.73 0.22q-0.23 0.18-0.46 0.36-0.41 0.42-0.57 0.99-0.93 2.31-1.86 4.63c-0.2 0.5-0.03 1.28 0.23 1.73 0.27 0.46 0.81 0.91 1.34 1.03 0.58 0.13 1.22 0.1 1.73-0.23q0.23-0.17 0.46-0.35 0.41-0.42 0.57-0.99 0.93-2.31 1.86-4.63c0.2-0.51 0.03-1.28-0.23-1.73z"/>
				<path id="&lt;Path&gt;" class="s11" d="m1246.98 1682.85c-1.12-0.59-2.38-0.24-3.07 0.81q-4.35 6.67-8.71 13.33c-0.64 0.99-0.23 2.53 0.81 3.08 1.12 0.59 2.38 0.24 3.07-0.81q4.35-6.67 8.71-13.33c0.64-0.99 0.23-2.53-0.81-3.08z"/>
				<path id="&lt;Path&gt;" class="s11" d="m1272.47 1697.99c-1.13-0.6-2.38-0.25-3.07 0.8q-4.24 6.44-8.48 12.88c-0.65 0.98-0.23 2.53 0.8 3.07 1.13 0.6 2.38 0.25 3.07-0.8q4.24-6.44 8.48-12.88c0.65-0.99 0.23-2.53-0.8-3.07z"/>
				<path id="&lt;Path&gt;" class="s11" d="m1292.73 1714.58c-1.16-0.61-2.33-0.21-3.07 0.81q-3.32 4.58-6.63 9.16c-0.69 0.95-0.2 2.54 0.8 3.07 1.17 0.61 2.34 0.21 3.08-0.81q3.31-4.58 6.63-9.16c0.69-0.95 0.19-2.54-0.81-3.07z"/>
				<g id="&lt;Group&gt;" style="mix-blend-mode: multiply">
					<g id="&lt;Group&gt;">
						<path id="&lt;Path&gt;" class="s12" d="m1075.88 1534.94c-0.02 4.2-0.3 8.43 0.16 12.62 0.48 4.3 1.71 8.2 3.46 12.15 1.56 3.53 3.51 6.86 5.58 10.12 2.08 3.31 3.27 7.02 5.58 10.18 4.85 6.66 10.14 12.55 16.3 18.02 6.11 5.42 12.78 9.99 19.18 15.03 3.06 2.4 5.85 5 9.44 6.58 1.62 0.71 2.94 1.68 4.34 2.73 1.58 1.19 3.3 1.91 5.07 2.75 3.33 1.58 5.93 4.14 9.27 5.71 3.13 1.46 5.26 3.19 7.74 5.57 2.68 2.56 5.3 4.31 8.69 5.75 0.13 0.05 0.68 0.41 0.48 0.26 0.57 0.43 1.09 0.96 1.65 1.41 1.59 1.25 3.42 1.66 5.17 2.58 1.56 0.82 2.95 2.06 4.45 2.99 1.63 1.02 3.32 1.93 5.01 2.84 1.51 0.81 2.77 1.87 4.15 2.87 1.58 1.13 3.36 1.94 4.93 3.07 3.19 2.31 6.48 4.44 9.54 6.9 1.7 1.37 3.45 2.36 5.37 3.36 1.78 0.93 2.75 2.1 4.14 3.5 1.71 1.71 3.78 2.47 5.68 3.85 1.74 1.26 3.14 2.97 4.89 4.25 3.46 2.54 7.18 5.13 11.01 7.08q1.13-4.18 2.26-8.37-0.3-0.02-0.61-0.04c-2.42-0.19-4.49 2.2-4.49 4.49 0 2.58 2.07 4.3 4.49 4.49q0.31 0.02 0.61 0.04c4.43 0.35 6.15-6.39 2.27-8.36-3.26-1.66-6.15-3.89-9.21-5.88-1.52-0.99-2.75-2.13-4.07-3.37-1.47-1.38-3.05-2.29-4.78-3.27-1.46-0.83-2.36-2.08-3.54-3.25-1.41-1.4-3.06-2.37-4.82-3.27-3.08-1.57-5.37-4.06-8.33-5.8-3.14-1.86-5.93-4.17-9.06-6.05-1.49-0.89-2.77-2.02-4.2-2.99-1.45-0.99-3.1-1.72-4.63-2.59q-2.29-1.32-4.47-2.82c-1.73-1.2-3.39-1.86-5.28-2.77-1.18-0.56-2.01-1.52-3.09-2.28-1.13-0.8-2.43-1.15-3.68-1.73-2.7-1.28-4.63-3.81-6.82-5.76-2.66-2.37-5.58-3.67-8.67-5.3-1.5-0.8-2.7-1.94-4.08-2.92-1.58-1.11-3.31-1.88-5.06-2.67-1.63-0.74-2.93-1.66-4.35-2.72-1.55-1.18-3.19-1.86-4.94-2.69-3.24-1.56-5.96-4.45-8.82-6.6-3.06-2.3-6.21-4.48-9.21-6.86-6.18-4.9-12.37-10.16-17.48-16.19-2.52-2.98-5.49-6.35-6.97-9.97-1.62-3.97-4.08-7.36-6.18-11.09-2.08-3.7-3.98-7.66-4.75-11.87-0.82-4.48-0.36-9.18-0.34-13.71 0.03-5.78-8.95-5.79-8.98 0z"/>
					</g>
				</g>
				<g id="&lt;Group&gt;" style="mix-blend-mode: multiply">
					<g id="&lt;Group&gt;">
						<path id="&lt;Path&gt;" class="s12" d="m1300.5 1726.2c6.01 4.74 11.98 9.6 17.9 14.45 1.42 1.16 2.76 2.49 4.37 3.41 1.22 0.69 2.84 0.98 3.9 1.89 1.35 1.16 2.18 2.6 3.67 3.69 1.35 1 2.84 1.79 4.23 2.74 2.84 1.93 5.6 4.1 8.16 6.39 2.67 2.39 4.44 5.16 6.17 8.27 1.63 2.92 2.9 5.9 3.95 9.06 0.5 1.49 1.03 2.89 1.12 4.46 0.13 2.11 0.42 3.7 1.47 5.57 2.08 3.71 8.75 2.28 8.37-2.27q-0.03-0.3-0.05-0.61c-0.21-2.41-1.92-4.49-4.49-4.49-2.28 0-4.7 2.06-4.5 4.49q0.03 0.31 0.06 0.61 4.18-1.13 8.36-2.26c-0.66-1.18-0.34-3.23-0.64-4.55-0.38-1.68-1.02-3.36-1.59-4.99q-1.82-5.16-4.52-9.93c-1.72-3.05-3.6-6.05-6.09-8.53-2.78-2.77-6.03-5.1-9.16-7.45-2.69-2.01-5.5-3.42-7.69-6-2.18-2.56-5.54-3.15-8.06-5.27-3.05-2.56-6.31-4.84-9.37-7.39-3.07-2.55-6.09-5.17-9.22-7.64-1.91-1.5-4.5-1.86-6.35 0-1.56 1.56-1.92 4.84 0 6.35z"/>
					</g>
				</g>
			</g>
			<path id="&lt;Path&gt;" class="s5" d="m1256.64 1678.13q0.11-0.11 0.22-0.22c0.9-0.37 1.76-1.07 2.28-1.84 1.38-2.06 1.01-5.17-1.05-6.42-1.99-1.2-4.95-0.81-6.34 1.46q-0.78 1.27-0.79 2.71-0.09 0.2-0.17 0.39c-0.63 1.5 0.03 3.55 1.33 4.33 1.32 0.8 3.29 0.83 4.52-0.41z"/>
			<path id="&lt;Path&gt;" class="s5" d="m1280.64 1697.07q0.13 0 0.26 0c3.82 0.09 7.06-3.6 6.43-7.46-0.63-3.84-4.8-5.85-8.33-4.07q-0.11 0.06-0.23 0.12c-2.31 1.16-3.94 4.15-3.41 6.7 0.54 2.58 2.59 4.65 5.28 4.71z"/>
			<path id="&lt;Path&gt;" class="s5" d="m1305.21 1709.03c1.47-2.2 1.07-5.52-1.13-6.85-2.2-1.33-5.18-0.8-6.76 1.55-1.47 2.2-1.07 5.52 1.12 6.85 2.21 1.33 5.19 0.8 6.77-1.55z"/>
		</g>
		<g id="&lt;Group&gt;">
			<path id="&lt;Compound Path&gt;" fill-rule="evenodd" class="s10" d="m393.06 1566.12q14.27 24.15 28.55 48.31c-7.95-0.46-14.99-2.68-22.95-3.69-20.03-2.54-38.29 6.51-55.2 15.61q-38.03 20.48-75 42.74-18.83 11.34-37.38 23.13c-1.56 1-3.1 2.05-4.65 3.1 2.93 4.12 5.7 8.38 8.4 12.67q17.38-10.1 35.14-19.61c14.9-7.97 30.02-17.57 45.92-23.61 6.59-2.51 14.86-3.63 20.23 4 16.63 23.63-26.88 46.65-38.62 54.99-11.99 8.52-24.21 16.72-36.6 24.64 2.87 4.57 5.64 9.19 8.16 13.9 1.3 2.42 0.62 5.14-0.9 6.71-0.61 2.75-5.26 2.33-6.58-0.71q-0.11-0.23-0.22-0.46c-3.56-4.28-6.92-8.76-10.14-13.36q-7.66 4.77-15.4 9.4c3.26 5.63 6.2 11.37 8.25 17.21 1.51 4.28-3.65 8-6.95 4.4-4.28-4.68-8.07-10.02-11.62-15.59-1.98 1.15-4.91 2.16-6.52 3.79-2.27 2.3-1.71 2.01 0.78 5.15 3.44 4.34 7.61 9.64 10.01 14.62 2.18 4.51-1.5 8.85-6.27 7.9-4.52-0.91-6.51-4.94-9.13-8.65-2.77-3.9-5.46-7.87-8.13-11.85-12.5 6.91-25.15 13.6-38.01 19.86-10.05 4.89-20.69 10.01-32.73 8.27-3.41-0.49-6.79-1.64-9.94-3.37-2.72-1.51-4.57-4.81-7.25-6.17-3.13-1.59-4.78 0.72-7.56 2.64q-9.86 6.78-19.72 13.56c-0.41 0.29-0.87 0.65-0.85 1.21 0.01 0.23 0.11 0.46 0.21 0.69 1.41 3.24 0.63 13.8-4.2 7.64-4.32-5.03-8.21-10.45-11.62-16.14-0.58-0.97-1.11-2.36-0.33-2.99 0.33-0.26 0.79-0.28 1.22-0.27 2.3 0.02 4.62 0.36 6.9 0.99 1.26 0.35 2.56 0.79 3.76 0.51 0.77-0.18 1.41-0.65 2.04-1.1 6.48-4.71 13.17-9.21 19.49-14.14 5.58-4.35 1.09-8.98 2.06-15.47 0.55-3.65 1.99-6.99 4.01-9.84 8.03-11.39 21.34-20.22 32.25-28.37 7.33-5.47 14.86-10.67 22.48-15.73q-0.77-1.75-1.44-3.52c-0.57-1.49-0.29-2.74 0.4-3.62-1.66 0.42-3.55-0.42-4.69-2.06-1.37-1.97-0.82-4.73 0.91-5.83 1.85-1.17 4.32-0.32 5.7 1.65 1.13 1.62 0.94 3.75-0.11 5.07 1.24-0.35 2.71-0.13 3.91 0.92 0.92 0.79 1.8 1.67 2.68 2.54q4.51-2.92 9.04-5.81 2.5-1.6 5-3.2-1.35-2.68-2.64-5.4c-0.43-0.91-0.54-1.7-0.42-2.36-2.15 0.43-4.54-0.68-6.01-2.77-1.82-2.61-1.08-6.28 1.21-7.72 2.45-1.55 5.72-0.43 7.55 2.18 1.3 1.86 1.28 4.25 0.34 6 1.44-0.1 3.05 0.44 4.09 1.72q1.51 1.88 2.98 3.79 8.45-5.4 16.89-10.82-1.14-2.59-2.11-5.22c-0.34-0.94-0.31-1.84-0.02-2.63-0.2-0.66-0.15-1.26 0.03-1.79-1.64 0.64-3.62-0.15-4.78-1.81-1.28-1.84-0.76-4.43 0.85-5.45 1.74-1.1 4.05-0.31 5.34 1.54 0.87 1.26 0.9 2.86 0.31 4.07 1.05-0.31 2.31-0.01 3.22 1.35q0.03 0.03 0.06 0.07 0.54 0.29 1.03 0.83 1.84 2.05 3.58 4.21c14.74-9.5 29.49-18.99 44.3-28.38q12.65-8.56 25.31-17.12c25.54-17.28 55.41-33.26 74.26-58.69 8.09-10.93 13.45-24.74 12.37-39.44 5.45 5.92 11.37 14.23 15.47 21.18zm-275.35 218.26c18.61-13.93 38.21-26.61 57.52-39.4q2.14-1.41 4.29-2.81c-2.8-4.19-5.45-8.45-7.77-12.77-9.74 6.5-19.3 13.25-28.46 20.56-9.28 7.41-28.86 19.42-25.58 34.42zm83.75-10.68q-2.08-3.14-4.18-6.26c-3.91-5.82-8.35-11.8-12.69-17.93-21.04 14.2-41.61 29.04-62.4 43.59 10.25 12.46 27 7.27 38.06 2.01 13.97-6.64 27.69-13.84 41.21-21.41zm3.74-37.75q-5.15 3.3-10.26 6.66c1.8 2.7 3.58 5.37 5.33 7.91q5.9 8.56 11.77 17.14c2.98-1.72 5.96-3.43 8.91-5.19-3.45-5.83-6.75-11.73-10.13-17.28q-2.82-4.62-5.62-9.24zm-11.84-20.49q-6.21 3.91-12.37 7.88c3.18 3.76 6.17 7.86 9.04 12.01q5.35-3.43 10.74-6.81-3.83-6.48-7.41-13.08zm52.72 31.44c-3.84-5.8-7.55-11.68-11.26-17.48q-2.66-4.12-5.37-8.31-3.36 1.95-6.7 3.94c-2.7 1.62-5.37 3.29-8.06 4.95q3.53 5.6 7 11.24c3.01 4.9 6.32 9.91 9.53 15.01q7.47-4.6 14.86-9.35zm-28.5-45.76q-1.99 1.26-4.06 2.38c-0.29 0.15-1.33 0.53-2.69 0.96q-1.8 1.12-3.59 2.25-2.86 1.79-5.72 3.59c2.96 4.09 5.79 8.26 8.55 12.48q7.37-4.51 14.81-8.93c-2.58-4.17-5.05-8.41-7.3-12.73zm25.51 20.02c4.15 6.48 8.52 12.91 12.78 19.41 14.18-9.32 28.12-18.97 41.81-28.83 7.34-5.29 37.6-21.79 32.64-34.51-4.74-12.2-32.1 6.15-38.07 9.2-17.89 9.14-35.49 18.8-52.86 28.85q1.84 2.97 3.7 5.88z"/>
			<g id="&lt;Clip Group&gt;" clip-path="url(#cp4)">
				<path id="&lt;Path&gt;" class="s11" d="m393.05 1570.86q5.38 9.43 10.75 18.85c1.38 2.44-2.37 4.63-3.76 2.2q-5.37-9.43-10.74-18.86c-1.39-2.44 2.37-4.63 3.75-2.19z"/>
				<path id="&lt;Path&gt;" class="s11" d="m382.11 1560.09c0.27-0.45 0.78-0.88 1.3-1 0.56-0.12 1.18-0.1 1.68 0.22q0.22 0.17 0.44 0.34 0.4 0.41 0.56 0.96 0.89 2.24 1.79 4.49c0.2 0.49 0.04 1.24-0.22 1.67-0.26 0.45-0.78 0.88-1.3 1-0.55 0.13-1.18 0.1-1.67-0.22q-0.22-0.17-0.44-0.34-0.41-0.4-0.56-0.96-0.9-2.24-1.8-4.48c-0.19-0.49-0.03-1.24 0.22-1.68z"/>
				<path id="&lt;Path&gt;" class="s11" d="m218.14 1687.4c1.09-0.58 2.31-0.24 2.98 0.78q4.21 6.45 8.43 12.91c0.63 0.96 0.22 2.45-0.78 2.98-1.08 0.57-2.31 0.23-2.97-0.78q-4.22-6.46-8.44-12.92c-0.62-0.95-0.22-2.44 0.78-2.97z"/>
				<path id="&lt;Path&gt;" class="s11" d="m193.46 1702.05c1.09-0.57 2.3-0.23 2.97 0.78q4.11 6.24 8.22 12.48c0.62 0.95 0.22 2.44-0.78 2.97-1.09 0.58-2.31 0.24-2.98-0.78q-4.11-6.24-8.21-12.47c-0.63-0.96-0.22-2.45 0.78-2.98z"/>
				<path id="&lt;Path&gt;" class="s11" d="m173.83 1718.12c1.13-0.59 2.26-0.2 2.98 0.78q3.21 4.44 6.42 8.88c0.67 0.92 0.19 2.46-0.78 2.97-1.13 0.6-2.26 0.21-2.97-0.78q-3.22-4.43-6.43-8.87c-0.67-0.92-0.19-2.46 0.78-2.98z"/>
				<g id="&lt;Group&gt;" style="mix-blend-mode: multiply">
					<g id="&lt;Group&gt;">
						<path id="&lt;Path&gt;" class="s12" d="m375.15 1544.14c0.02 3.77 0.25 7.56-0.06 11.33-0.3 3.51-1.54 6.9-3.07 10.05-1.59 3.26-3.5 6.35-5.45 9.39-1.93 3-2.9 6.29-5.06 9.19-4.56 6.14-9.76 11.42-15.54 16.42-5.88 5.08-12.32 9.39-18.35 14.27-1.33 1.08-2.63 2.28-4.16 3.07-1.54 0.79-3.13 1.3-4.55 2.32-1.22 0.87-2.32 1.87-3.67 2.56-1.65 0.85-3.4 1.46-5 2.43-1.43 0.87-2.62 2.05-4.02 2.96-1.53 0.98-3.29 1.58-4.89 2.44-2.91 1.55-5.18 3.94-7.55 6.17-0.98 0.92-1.96 1.83-3.16 2.45-1.24 0.64-2.62 0.96-3.78 1.76-1.1 0.75-1.94 1.77-3.15 2.33-1.73 0.8-3.29 1.4-4.86 2.5-5.61 3.93-11.9 6.82-17.31 11.04-3.09 2.42-6.4 4.47-9.5 6.87-1.58 1.23-3.46 1.9-5.15 2.95-1.65 1.02-2.88 2.36-4.21 3.75-1.25 1.31-2.86 1.88-4.34 2.88-1.68 1.13-2.93 2.72-4.52 3.96-3.19 2.51-6.92 4.94-10.53 6.78-3.75 1.91-2.1 8.44 2.19 8.1q0.3-0.02 0.59-0.04c5.55-0.44 5.59-9.14 0-8.7q-0.29 0.02-0.59 0.05 1.1 4.05 2.2 8.1c3.38-1.73 6.45-4.03 9.61-6.13q2.19-1.47 4.1-3.29c1.4-1.34 2.87-2.09 4.49-3.12 1.42-0.9 2.57-2.04 3.71-3.27 1.3-1.41 2.72-2.1 4.41-3 3.15-1.67 5.72-4.21 8.76-6.07 1.52-0.92 2.83-2.11 4.27-3.15 1.41-1.02 3.01-1.75 4.44-2.74 2.9-2.03 5.88-3.71 8.9-5.57 1.46-0.9 2.81-2.01 4.28-2.88 1.58-0.92 3.38-1.29 4.9-2.37 0.98-0.7 1.75-1.58 2.7-2.04 1.6-0.77 3.14-1.31 4.59-2.38 2.59-1.92 4.61-4.49 7.19-6.4 2.81-2.09 6.19-3.07 8.99-5.26 2.71-2.12 6.09-2.97 8.83-5.03 2.86-2.15 6.16-3.32 8.99-5.53 12.54-9.79 26.06-18.79 35.82-31.59 1.33-1.74 2.72-3.49 3.91-5.33 1.07-1.66 1.56-3.49 2.41-5.24 1.81-3.75 4.51-7.08 6.37-10.83 1.94-3.91 3.55-8 4.16-12.34 0.65-4.59 0.38-9.2 0.36-13.82-0.03-5.6-8.72-5.61-8.7 0z"/>
					</g>
				</g>
				<g id="&lt;Group&gt;" style="mix-blend-mode: multiply">
					<g id="&lt;Group&gt;">
						<path id="&lt;Path&gt;" class="s12" d="m160.16 1723.23c-3.06 2.41-6 4.96-8.99 7.45-2.83 2.36-5.86 4.46-8.68 6.82-2.66 2.23-6.1 2.98-8.37 5.67-2.03 2.4-4.83 3.74-7.34 5.62-2.99 2.24-6.09 4.48-8.75 7.12-2.32 2.3-4.09 5.08-5.69 7.9-1.8 3.15-3.34 6.43-4.54 9.86-0.62 1.74-1.31 3.55-1.66 5.36-0.23 1.15 0.03 2.97-0.55 4q4.05 1.1 8.1 2.19 0.03-0.29 0.05-0.59c0.47-5.57-8.23-5.54-8.69 0q-0.03 0.3-0.05 0.59c-0.37 4.4 6.08 5.79 8.1 2.2 1.58-2.8 1.26-5.91 2.24-8.91 1.1-3.34 2.37-6.5 4.09-9.58 1.52-2.72 3.06-5.3 5.36-7.44 2.62-2.46 5.55-4.74 8.52-6.76 1.35-0.92 2.79-1.68 4.1-2.65 1.34-0.99 2.14-2.21 3.32-3.32 1.06-1 2.54-1.28 3.83-1.99 1.63-0.9 2.98-2.23 4.42-3.4 5.74-4.68 11.51-9.4 17.33-13.99 1.85-1.45 1.52-4.63 0-6.15-1.82-1.82-4.3-1.46-6.15 0z"/>
					</g>
				</g>
			</g>
			<path id="&lt;Path&gt;" class="s5" d="m208.79 1682.83q-0.11-0.11-0.22-0.22c-0.87-0.36-1.7-1.04-2.2-1.79-1.34-1.99-0.98-5 1.01-6.21 1.93-1.16 4.8-0.78 6.14 1.41q0.76 1.23 0.77 2.63 0.08 0.19 0.16 0.37c0.62 1.45-0.03 3.44-1.29 4.2-1.27 0.77-3.18 0.8-4.37-0.39z"/>
			<path id="&lt;Path&gt;" class="s5" d="m185.54 1701.16q-0.12 0-0.24 0.01c-3.71 0.08-6.85-3.5-6.24-7.23 0.61-3.72 4.65-5.66 8.07-3.94q0.11 0.05 0.23 0.11c2.23 1.13 3.81 4.02 3.3 6.49-0.52 2.5-2.51 4.5-5.12 4.56z"/>
			<path id="&lt;Path&gt;" class="s5" d="m161.75 1712.75c-1.43-2.13-1.04-5.35 1.09-6.63 2.13-1.3 5.02-0.78 6.55 1.5 1.43 2.13 1.04 5.34-1.09 6.63-2.13 1.29-5.02 0.78-6.55-1.5z"/>
		</g>
		<path id="&lt;Path&gt;" class="s13" d="m315.99 1241.32l-10.91 10.09-10.22-10.97 3.59 16.29-13.31 4.61 16.83 2.6 4.73 15.44 4.05-16.15 13.65 0.3-12.82-7.37z"/>
		<path id="&lt;Path&gt;" class="s2" d="m473.01 1433.04l-5.64 11.63-11.76-5.66 8.06 12.07-9.32 7.94 14.45-3.21 8.71 11.01-1.82-14.36 11.16-4.08-12.71-1.91z"/>
		<path id="&lt;Path&gt;" class="s13" d="m1129.75 1223.8l0.17 14.86-12.68 0.07 12.26 8.41-4.64 12.9 11.16-10.59 12.37 6.99-7.84-13.93 7.91-9.83-11.88 4.43z"/>
		<path id="&lt;Path&gt;" class="s2" d="m990.79 1457.84l1.69 13.23-13.36 1.76 13.78 5.87-0.36 16.46 7.47-15.27 13.75 4.59-9.69-11.38 5.44-11.36-10.17 7.06z"/>
		<path id="&lt;Compound Path&gt;" class="s13" d="m202.04 1338.02q0.45-0.8 0.77-1.67c6.93-14.8 8.76-32.62 1.92-47.8-1.38-3.07-3.56-7.6-6.9-8.91-3.13-1.22-6 0.69-6 3.99-0.01 3.86 2.55 7.27 3.61 10.88 5.37 18.2 5.26 23.07 5.89 28.29 0.59 4.85 0.05 9.74-1.24 14.48-0.31 1.17 1.37 1.75 1.95 0.74z"/>
		<path id="&lt;Compound Path&gt;" class="s14" d="m1030.32 1569.95q-0.04-0.01-0.08-0.03c-0.42-0.18-0.89-0.23-1.34-0.28-4.55-0.55-8.98-1.76-13.49-2.51-5.69-0.96-11.71-0.54-17.24 1.3-5.23 1.74-11.4 5.08-14.4 9.91-0.39 0.62-0.71 1.3-0.87 2.02-0.5 2.19 1.27 3.89 3.41 3.85 1.33-0.02 2.49-0.73 3.56-1.44 1.63-1.09 3.24-2.17 4.97-3.09 3.38-1.8 6.97-3.13 10.65-4.14 4.22-1.17 8.55-1.95 12.89-2.46 4.01-0.46 8.17-0.44 12.13-1.21 1.21-0.23 0.53-1.54-0.19-1.92z"/>
		<path id="&lt;Compound Path&gt;" class="s14" d="m1042.01 1546.15c-2.53-6.88-4.95-13.71-5.04-21.15-0.05-4.24 0.44-8.49 0.97-12.7q0.37-2.92 0.76-5.84c0.26-1.96 0.76-4.1 0.49-6.08-0.3-2.16-2.18-4.19-4.5-3.43-2.87 0.92-4.31 4.74-4.92 7.37-1.54 6.75-1.02 14.31 0.47 21.02 0.83 3.76 1.98 7.45 3.52 10.97 1.16 2.64 2.66 5.11 4.27 7.49 0.66 0.97 1.47 2.73 2.42 3.42 0.78 0.57 1.97 0.04 1.56-1.07z"/>
		<path id="&lt;Compound Path&gt;" class="s14" d="m1032.24 1552.36c-2.94-3.34-6.39-6.18-9.28-9.6q-3.41-4.02-6.07-8.58c-3.66-6.31-6.05-13.24-8.53-20.07-0.81-2.23-1.73-7.6-5.28-6.09-2.72 1.15-3.63 5.21-3.83 7.83-0.3 3.9 2.05 8.39 3.81 11.78 1.8 3.46 4.11 6.63 6.65 9.58 2.91 3.39 6.08 6.56 9.58 9.33 1.9 1.51 3.94 2.83 6.03 4.05q1.62 0.93 3.26 1.81c0.82 0.43 1.9 1.27 2.79 1.47 0.9 0.19 1.48-0.81 0.87-1.51z"/>
		<g id="&lt;Group&gt;">
			<path id="&lt;Compound Path&gt;" class="s14" d="m285.69 1409.1c-2.17 0.68-3.61 1.42-3.21 2.13 0.56 0.96 1.78 0.42 2.64 0.22 9.61-2.19 18.92 3.31 26.2 9.01 3.84 3.01 7.49 6.27 11.43 9.15 3.26 2.37 6.95 4.92 10.98 5.68 3.17 0.6 6.94-0.19 8.27-3.49 1.49-3.7-1.21-7.55-3.54-10.19-5.68-6.43-13.37-10.92-21.6-13.22-5.92-1.66-12.12-2.28-18.24-1.86-1.12 0.08-8.52 1.2-12.93 2.57z"/>
			<path id="&lt;Compound Path&gt;" class="s14" d="m344.02 1352.45c-4.59 2.47-7.92 6.64-11.66 10.15-3.71 3.47-7.79 6.54-11.99 9.37-5.02 3.37-10.27 6.41-15.65 9.17-5.14 2.63-10.69 4.49-15.77 7.17-0.73 0.38-0.98 1.55-0.37 2.15 0.83 0.81 2.97-0.13 3.9-0.33 13.06-2.75 26.46-5.04 38.69-10.61 8-3.64 15.4-8.66 21.19-15.33 2.4-2.77 5.66-7.37 3.28-11.12-2.42-3.81-8.38-2.36-11.62-0.62z"/>
		</g>
		<g id="&lt;Group&gt;">
			<path id="&lt;Compound Path&gt;" class="s13" d="m1242.95 1329.91q0.06-0.01 0.12-0.04 0.07-0.01 0.14-0.04 0.04-0.02 0.08-0.05c0.29-0.17 0.52-0.46 0.53-0.86 0.3-13.76 0.35-29.57-8.58-40.99-1.41-1.8-3.42-3.7-5.88-3.58-2.77 0.14-4.16 2.68-4.59 5.12-1.1 6.21 1.53 12.3 4.45 17.62 2.08 3.81 4.34 7.52 6.41 11.33 1.92 3.55 3.63 7.92 6.33 10.96 0.14 0.45 0.56 0.62 0.99 0.53z"/>
			<path id="&lt;Compound Path&gt;" class="s13" d="m1180.62 1339.18c5.28-1.93 11.27-2.67 16.86-1.99 5.41 0.65 10.79 1.57 16.17 2.41q4.42 0.7 8.84 1.38c2.51 0.39 5.03 0.95 7.57 0.69 1.06-0.1 1.36-1.68 0.33-2.07q-0.06-0.02-0.11-0.04c-13.48-11.24-29.95-24.82-48.8-19.99-4.31 1.11-8.88 3.31-11.62 6.94-2.41 3.2-3.1 8.01-0.09 11.1 3.13 3.21 6.99 2.98 10.85 1.57z"/>
			<path id="&lt;Compound Path&gt;" class="s13" d="m1182.16 1382.62c4.39-2.37 7.83-6.73 11.42-10.1 2.73-2.58 5.7-4.87 8.9-6.83q3.38-2.06 7-3.65c2.44-1.08 5.61-1.77 7.6-3.56 0.21-0.18 0.25-0.5 0.14-0.74 0-0.23-0.12-0.45-0.38-0.55-7.68-2.84-15.94-3.76-23.63-0.41-6.25 2.73-11.07 7.76-14.65 13.46-1.69 2.7-4.01 6.21-3.04 9.56 0.88 3.02 3.91 4.29 6.64 2.82z"/>
		</g>
		<path id="&lt;Path&gt;" class="s13" d="m240.19 1365.29c3.4-17.53 12.82-39.89 17.16-48.01 4.92-9.2 11.82-17.23 17.22-26.13 1.14-1.86 2.16-3.86 2.47-6.02 0.62-4.19-1.95-7.51-6.08-8.18-6.17-1.01-10.99 3.59-14.4 8.12-8.1 10.73-13.69 23.35-16.7 36.42-1.71 7.45-2.56 15.04-2.46 22.68 0.09 6.49 0.62 13.23 2.32 19.55 0.01 0.3 0.38 1.33 0.47 1.57z"/>
		<path id="&lt;Path&gt;" class="s14" d="m419.24 1548.03q3.3-1.99 6.37-4.32c6.41-4.85 11.72-10.97 16.5-17.4 4.27-5.76 8.79-11.69 12.13-18.16 3.13-6.05 6.7-14.51 4.07-21.28-0.8-2.05-3.03-2.65-4.99-1.91-2.42 0.91-3.36 3.48-4.05 5.76-3.68 12.06-9.03 23.53-16.23 33.9-4.07 5.86-8.75 11.28-13.85 16.26-4.79 4.68-10.45 8.38-15.37 12.82-0.36 0.33-1.05 1.1-0.31 1.14 0.59 0.04 1.95-0.23 5.15-1.59 2.03-0.87 4.07-1.72 6.04-2.71q2.31-1.17 4.54-2.51z"/>
		<g id="&lt;Group&gt;">
			<path id="&lt;Path&gt;" class="s2" d="m529.94 1577.79l-12.74-2.16 2.13-12.86-9.32 11.11-10.23-6.72 7.13 12.97-8.13 11.45 13.28-5.77 7.04 9.57-1.73-12.75z"/>
			<path id="&lt;Path&gt;" class="s2" d="m492.79 1579.86q0.21-0.35 0.29-0.81c0.38-2.27-3.54-4.64-5.14-5.69-2.94-1.93-6.21-3.34-9.56-4.37-8.7-2.67-18.12-3.67-27.19-3.16-5.43 0.3-10.82 1.14-16.08 2.5-2.04 0.53-4.22 1-6.13 1.91-0.71 0.34-3.03 1.66-0.95 1.77 2.69 0.13 5.46-0.51 8.16-0.61 6.29-0.24 12.61 0.39 18.73 1.82 9.75 2.29 18.96 6.31 28.96 7.63 2.03 0.26 7.5 1.41 8.91-0.99z"/>
		</g>
		<g id="&lt;Group&gt;">
			<g id="&lt;Group&gt;">
				<g id="&lt;Group&gt;">
					<path id="&lt;Path&gt;" class="s5" d="m1272.19 1380.24l-32.64 114.23c0 0 14.01 27.15 57.35 40.1 40.57 12.12 69.48-0.93 69.48-0.93l34.5-113.77c0 0-41.03-6.53-66.21-15.39-25.18-8.86-62.48-24.24-62.48-24.24z"/>
					<path id="&lt;Path&gt;" class="s15" d="m1346.79 1378.37c0 0-56.41-9.32-65.27-4.66-8.86 4.66-7.93 11.19 11.19 23.78 19.11 12.59 51.29 27.51 69.47 27.04 18.18-0.46 36.37-1.4 37.3-8.39 0.93-6.99-24.71-29.37-52.69-37.77z"/>
					<path id="&lt;Path&gt;" class="s1" d="m1388.59 1458.38q-0.36 0.92-0.7 1.86-0.37 1.51-0.87 3.01-0.03 0.09-0.06 0.18c1.62-0.2 3.22-0.49 4.85-0.62q0.25-0.02 0.49-0.03-1 2.71-2.15 5.36c-3.43 7.96-6.88 15.91-10.64 23.72q-0.69 1.41-1.38 2.83c-1.74-11.58-3.48-23.16-7.58-34.2-0.75-2.01-3.21-2.93-4.87-1.29q-14.96 14.82-29.94 29.61c-1.47-12.97-3.85-25.81-7.19-38.43-0.41-1.57-2.62-2.75-4.07-1.66q-19.07 14.49-37.05 30.31c-1.96-13.84-3.23-27.79-3.53-41.76-0.04-1.68-2.05-3.14-3.59-2.06q-15.74 11.06-32.15 21.09c2.79-11.56 6.26-22.91 9.94-34.22q0.45 1.4 0.94 2.79 0.48-1.67 1.09-3.31 0.12-0.33 0.25-0.68-0.27-2.27-0.68-4.54c-0.25-1.28-2.36-1.61-2.9-0.38-6.32 14.21-10.74 29.27-14.15 44.42-0.41 1.85 1.54 3.54 3.27 2.51q16.97-10.09 33.29-21.19c0.33 14.54 1.43 29.02 3.61 43.42 0.33 2.19 3.21 2.43 4.58 1.21q17.85-15.91 36.82-30.46c3.17 12.83 5.38 25.87 6.53 39.04 0.21 2.35 2.95 3.79 4.79 1.98q15.45-15.15 30.91-30.28c3.83 12.47 5.2 25.57 7.47 38.39 0.42 2.38 4.25 2.88 5.28 0.69 3.85-8.18 7.42-16.51 11.16-24.74 1.86-4.1 3.68-8.2 5.38-12.37 0.87-2.15 2.33-4.75 2.4-7.14 0.14-4.97-5.36-4.02-9.55-3.06z"/>
				</g>
				<path id="&lt;Path&gt;" class="s6" d="m1381.94 1419.9q-0.98 5.15-2.11 10.26c-2.54 11.36-5.68 22.71-10.12 33.48-5.35 12.97-13.51 24.78-24.71 33.36-9.99 7.64-22.18 12.46-34.76 13.3-24.88 1.67-47.71-10.75-63.31-29.35l-3.73 13.07c3.12 5.07 18.1 26.38 54.67 37.31 11.13 3.33 22.42 5.01 33.55 5.01q0.01 0 0.01 0c16.6 0 28.33-3.8 32.18-5.24l32.91-108.53c-3.27-0.56-8.42-1.47-14.58-2.67z"/>
				<path id="&lt;Compound Path&gt;" fill-rule="evenodd" class="s2" d="m1403.34 1420.6c-1.19 4.15-2.93 6.18-2.93 6.18-0.21 0.09-14.86 6.76-37.83 6.76-9.95 0-21.45-1.25-34.03-4.83-44.47-12.65-59.6-40.85-59.76-41.14 0 0-0.45-1.46-0.35-3.92 0.06-1.49 0.48-3.22 1-4.63 0.95-2.54 2.38-4.86 4.25-6.81 0.15-0.26 0.27-0.53 0.45-0.77 3.19-4.29 9.96-4.43 14.76-4.83 11.92-0.99 23.89 0.11 35.67 2.01 11.71 1.9 23.35 4.74 34.5 8.81 10.71 3.9 21.12 9.23 30.37 15.91 6.04 4.35 13.38 10.76 14.41 18.98 0.25 1.95 0.2 5.78-0.51 8.28zm-11.38-10.13c-3.67-3.24-7.64-6.26-11.67-9.03-16.43-11.27-35.62-17.92-55.03-21.85-10.29-2.08-20.78-3.25-31.28-3-4.78 0.11-9.92 0.23-14.56 1.49q-0.78 0.21-1.58 0.53c6.31 8.57 22.25 25.57 54.26 34.68 29.64 8.44 52.67 3.91 63.24 0.71-1-1.3-2.19-2.48-3.38-3.53z"/>
				<g id="&lt;Group&gt;">
					<path id="&lt;Path&gt;" class="s1" d="m1348.72 1378.78c-1.45-5.41-4.2-10.66-6.48-15.77q-3.35-7.57-6.65-15.17-6.78-15.58-13.72-31.1c-1.02-2.27-2-4.56-3.03-6.82-0.71-1.53-1.95-3.46-3.93-2.54-1.35 0.62-1.55 2.23-1.19 3.52 0.63 2.25 1.92 4.47 2.88 6.59 4.51 9.85 9.32 19.56 13.88 29.39 2.61 5.64 5.2 11.29 7.51 17.07q1.62 4.05 3.12 8.14c1.01 2.78 1.81 5.63 3.36 8.17 0.24 0.4 0.98 0.27 0.93-0.25q-0.02-0.18-0.04-0.36 0.11 0.23 0.22 0.45c0.97 1.69 3.65 0.56 3.14-1.32z"/>
					<path id="&lt;Compound Path&gt;" class="s3" d="m1354.21 1375.04c-2.18-1.51-4.91-2.35-7.57-2.05-7.6 0.87-8.73 10.47-7.53 16.47 0.54 2.67 1.78 5.25 4.01 6.89 1.98 1.46 4.59 2.04 7.02 1.73 5.21-0.66 9.15-5.04 9.81-10.18 0.64-4.97-1.61-10.01-5.74-12.86z"/>
				</g>
				<g id="&lt;Group&gt;">
					<path id="&lt;Path&gt;" class="s1" d="m1355.66 1354.7c-5.16-2.16-10.99-3.2-16.42-4.54q-8.04-1.99-16.07-4.04-16.47-4.19-32.98-8.22c-2.42-0.58-4.83-1.21-7.25-1.78-1.64-0.38-3.93-0.59-4.42 1.55-0.33 1.44 0.82 2.59 2.06 3.09 2.16 0.88 4.7 1.23 6.97 1.76 10.55 2.48 21.17 4.63 31.72 7.05 6.07 1.39 12.12 2.81 18.11 4.53q4.18 1.2 8.33 2.52c2.82 0.9 5.56 2.02 8.52 2.35 0.46 0.06 0.81-0.61 0.37-0.89q-0.14-0.08-0.28-0.17 0.23 0.04 0.47 0.08c1.93 0.28 2.67-2.54 0.87-3.29z"/>
					<path id="&lt;Compound Path&gt;" class="s3" d="m1356.07 1348.07c-2.53 0.8-4.86 2.45-6.25 4.74-3.98 6.53 2.92 13.31 8.4 16.04 2.43 1.2 5.24 1.8 7.9 1.05 2.37-0.67 4.42-2.38 5.67-4.49 2.67-4.52 1.62-10.32-2.04-13.99-3.53-3.55-8.89-4.86-13.68-3.35z"/>
				</g>
				<g id="&lt;Group&gt;">
					<path id="&lt;Compound Path&gt;" class="s16" d="m1356.93 1384.8c-0.2-1.54-0.57-2.88-1.21-4.3-0.57-1.29-1.59-2.48-2.74-3.26-1.02-0.68-2.38-1.28-3.62-1.12-0.58 0.07-1.03 0.22-1.39 0.7-0.32 0.41-0.51 1.02-0.32 1.54 0.25 0.67 0.57 1.29 0.9 1.92q0.23 0.46 0.47 0.92-0.08-0.2-0.13-0.3 0.04 0.08 0.1 0.22 0.1 0.24 0.21 0.49 0.12 0.23 0.26 0.45 0.11 0.21 0.21 0.43-0.02-0.07-0.05-0.15 0.04 0.11 0.09 0.22 0.04 0.1 0.08 0.2 0.09 0.24 0.19 0.48 0.24 0.71 0.38 1.45 0.08 0.7 0.06 1.39c-0.05 1.01 0.12 1.92 0.61 2.73 0.39 0.83 1.14 1.51 2.05 1.63 0.78 0.1 1.41-0.13 1.96-0.53l-0.05 0.05c1.9-0.99 2.17-3.25 1.94-5.16z"/>
					<path id="&lt;Path&gt;" class="s17" d="m1349.7 1382.54q-0.01-0.03-0.03-0.05c0.17 0.48 0.17 0.43 0.12 0.27q-0.05-0.1-0.08-0.2-0.01-0.01-0.01-0.02z"/>
				</g>
				<path id="&lt;Path&gt;" class="s16" d="m1368.3 1354.36c-1.57-1.83-3.75-2.86-6.12-3.11-1.38-0.14-2.64 0.17-3.9 0.71-1.18 0.5-2.06 1.33-2.75 2.41-0.58 0.91 0.38 1.97 1.35 1.75q0.33-0.08 0.67-0.14 0.08-0.01 0.12-0.02 0.15-0.01 0.29-0.02 0.44-0.04 0.87-0.1 0.03 0 0.15 0 0.22-0.02 0.43-0.03 0.36 0 0.71 0.02 0.01 0.01 0.02 0.01c0.04 0.01 0.57 0.06 0.48 0.05q0.23 0.03 0.47 0.05 0 0 0 0.01 0.4 0.08 0.79 0.18 0.17 0.06 0.34 0.11 0.09 0.03 0.12 0.03c0.13 0.07 0.28 0.17 0.36 0.21q0.29 0.15 0.58 0.32 0.14 0.09 0.28 0.19 0.04 0.03 0.09 0.06 0.06 0.05 0.11 0.09 0.12 0.11 0.24 0.23 0.25 0.23 0.46 0.48 0.05 0.05 0.07 0.07 0.23 0.34 0.44 0.69c0.56 0.88 1.47 1.65 2.56 1.66 0.98 0.01 1.81-0.58 2.18-1.47 0.7-1.66-0.36-3.22-1.41-4.44z"/>
			</g>
			<path id="&lt;Path&gt;" class="s2" d="m1301.57 1522.45c-35.34-10.56-53.03-32.88-58.36-40.76l-3.66 12.78c0 0 14.01 27.15 57.35 40.1 40.57 12.12 69.48-0.93 69.48-0.93l3.3-10.91c-9.85 3.08-36.24 9.24-68.11-0.28z"/>
		</g>
		<path id="&lt;Path&gt;" class="s18" d="m1000.96 1170.4c2.48-10.2 12.03-17.28 21.95-20.72 9.77-3.38 22.41-3.21 28.4 5.22 6.29 8.84 1.7 21.1-3.65 30.55-1.31 2.31-2.83 4.76-5.31 5.71-5.37 2.06-10.44-4.5-10.52-10.25-0.18-12.19 11.54-21.52 23.35-24.56 12.42-3.21 27.9-0.38 33.97 10.93"/>
		<path id="&lt;Path&gt;" class="s18" d="m561.66 1112.18c-7.47-15.09-20.72-27.97-37.1-31.86-16.39-3.89-35.59 2.91-43.4 17.83-4.03 7.7-4.62 17.72 0.52 24.73 5.13 7.01 16.71 9.02 22.69 2.72 6.11-6.43 3.8-17.2-1.14-24.57-7.26-10.84-19.42-18.25-32.38-19.74-12.96-1.49-26.48 2.97-36.01 11.88-0.66 0.61-1.35 1.4-1.2 2.28 0.15 0.89 1.73 1.19 1.84 0.3"/>
		<g id="&lt;Group&gt;">
			<path id="&lt;Path&gt;" class="s3" d="m369.67 1251.33q-0.35-1.27-1.28-2.21-0.51-0.39-1.02-0.78-1.17-0.68-2.52-0.68h-1.5q-1.03-0.04-1.92 0.43-0.93 0.3-1.61 1.03-0.73 0.68-1.03 1.61-0.47 0.89-0.44 1.93 0.09 0.66 0.18 1.32 0.36 1.28 1.29 2.21l1.01 0.78q1.17 0.68 2.52 0.69h1.5q1.03 0.03 1.93-0.44 0.93-0.3 1.61-1.03 0.73-0.68 1.03-1.61 0.47-0.89 0.43-1.92-0.09-0.67-0.18-1.33z"/>
			<path id="&lt;Path&gt;" class="s3" d="m1156.54 1170.55q-0.35-1.28-1.28-2.21l-1.02-0.78q-1.17-0.68-2.52-0.69h-1.5q-1.03-0.03-1.92 0.43-0.93 0.31-1.61 1.04-0.73 0.68-1.04 1.61-0.46 0.89-0.43 1.92 0.09 0.67 0.18 1.33 0.36 1.27 1.29 2.21 0.5 0.39 1.01 0.78 1.17 0.68 2.52 0.68h1.5q1.03 0.04 1.93-0.43 0.93-0.3 1.61-1.03 0.73-0.68 1.03-1.61 0.47-0.89 0.43-1.93-0.09-0.66-0.18-1.32z"/>
			<path id="&lt;Path&gt;" class="s3" d="m904.97 1027.83q-0.3-0.93-1.03-1.61-0.51-0.39-1.02-0.78-1.17-0.68-2.52-0.68-0.66 0.09-1.33 0.18-1.27 0.35-2.21 1.28l-1.49 1.5q-0.73 0.68-1.03 1.61-0.47 0.89-0.44 1.92-0.03 1.04 0.44 1.93 0.3 0.93 1.03 1.61 0.5 0.39 1.01 0.78 1.17 0.68 2.52 0.68 0.67-0.08 1.33-0.17 1.27-0.36 2.21-1.29l1.5-1.5q0.73-0.67 1.03-1.6 0.47-0.9 0.43-1.93 0.04-1.03-0.43-1.93z"/>
		</g>
		<g id="&lt;Group&gt;">
			<path id="&lt;Path&gt;" class="s5" d="m405.24 1300.01c-6.43 0-6.44 10 0 10 6.44 0 6.45-10 0-10z"/>
			<path id="&lt;Path&gt;" class="s5" d="m424.69 1240.18c-6.44 0-6.45 10 0 10 6.43 0 6.44-10 0-10z"/>
			<path id="&lt;Path&gt;" class="s5" d="m1080 1234.27q-0.31-0.93-1.04-1.61-0.68-0.73-1.61-1.03-0.89-0.47-1.92-0.43-0.67 0.09-1.33 0.18-1.27 0.35-2.21 1.28-0.39 0.51-0.78 1.02-0.68 1.17-0.68 2.52v1.5q-0.04 1.03 0.43 1.92 0.3 0.93 1.03 1.61 0.68 0.73 1.61 1.04 0.89 0.46 1.93 0.43 0.66-0.09 1.33-0.18 1.27-0.36 2.2-1.29 0.39-0.5 0.78-1.01 0.68-1.17 0.69-2.52v-1.5q0.04-1.03-0.43-1.93z"/>
			<path id="&lt;Path&gt;" class="s5" d="m1364.23 1216.32q-0.31-0.93-1.04-1.61-0.5-0.39-1.01-0.78-1.17-0.68-2.52-0.68-0.67 0.09-1.33 0.18-1.27 0.35-2.21 1.28l-1.49 1.5q-0.74 0.68-1.04 1.61-0.47 0.89-0.43 1.92-0.04 1.04 0.43 1.93 0.3 0.93 1.04 1.61 0.5 0.39 1.01 0.78 1.17 0.68 2.52 0.68 0.67-0.08 1.33-0.17 1.27-0.36 2.21-1.29l1.49-1.5q0.73-0.68 1.04-1.6 0.47-0.9 0.43-1.93 0.04-1.03-0.43-1.93z"/>
		</g>
	</g>
</svg>